<?xml version="1.0" encoding="utf-8" standalone="no"?>
<!DOCTYPE svg PUBLIC "-//W3C//DTD SVG 1.1//EN"
  "http://www.w3.org/Graphics/SVG/1.1/DTD/svg11.dtd">
<!-- Created with matplotlib (https://matplotlib.org/) -->
<svg height="668.16pt" version="1.1" viewBox="0 0 1382.4 668.16" width="1382.4pt" xmlns="http://www.w3.org/2000/svg" xmlns:xlink="http://www.w3.org/1999/xlink">
 <defs>
  <style type="text/css">
*{stroke-linecap:butt;stroke-linejoin:round;}
  </style>
 </defs>
 <g id="figure_1">
  <g id="patch_1">
   <path d="M 0 668.16 
L 1382.4 668.16 
L 1382.4 0 
L 0 0 
z
" style="fill:#ffffff;"/>
  </g>
  <g id="axes_1">
   <g id="patch_2">
    <path d="M 172.8 594.6624 
L 1244.16 594.6624 
L 1244.16 80.1792 
L 172.8 80.1792 
z
" style="fill:#ffffff;"/>
   </g>
   <g id="patch_3">
    <path clip-path="url(#pd18ee3eb46)" d="M 221.498182 594.6624 
L 225.394036 594.6624 
L 225.394036 566.927457 
L 221.498182 566.927457 
z
" style="fill:#4682b4;stroke:#000000;stroke-linejoin:miter;"/>
   </g>
   <g id="patch_4">
    <path clip-path="url(#pd18ee3eb46)" d="M 225.394036 594.6624 
L 229.289891 594.6624 
L 229.289891 576.172438 
L 225.394036 576.172438 
z
" style="fill:#4682b4;stroke:#000000;stroke-linejoin:miter;"/>
   </g>
   <g id="patch_5">
    <path clip-path="url(#pd18ee3eb46)" d="M 229.289891 594.6624 
L 233.185745 594.6624 
L 233.185745 585.417419 
L 229.289891 585.417419 
z
" style="fill:#4682b4;stroke:#000000;stroke-linejoin:miter;"/>
   </g>
   <g id="patch_6">
    <path clip-path="url(#pd18ee3eb46)" d="M 233.185745 594.6624 
L 237.0816 594.6624 
L 237.0816 585.417419 
L 233.185745 585.417419 
z
" style="fill:#4682b4;stroke:#000000;stroke-linejoin:miter;"/>
   </g>
   <g id="patch_7">
    <path clip-path="url(#pd18ee3eb46)" d="M 237.0816 594.6624 
L 240.977455 594.6624 
L 240.977455 529.947532 
L 237.0816 529.947532 
z
" style="fill:#4682b4;stroke:#000000;stroke-linejoin:miter;"/>
   </g>
   <g id="patch_8">
    <path clip-path="url(#pd18ee3eb46)" d="M 240.977455 594.6624 
L 244.873309 594.6624 
L 244.873309 483.722626 
L 240.977455 483.722626 
z
" style="fill:#4682b4;stroke:#000000;stroke-linejoin:miter;"/>
   </g>
   <g id="patch_9">
    <path clip-path="url(#pd18ee3eb46)" d="M 244.873309 594.6624 
L 248.769164 594.6624 
L 248.769164 465.232664 
L 244.873309 465.232664 
z
" style="fill:#4682b4;stroke:#000000;stroke-linejoin:miter;"/>
   </g>
   <g id="patch_10">
    <path clip-path="url(#pd18ee3eb46)" d="M 248.769164 594.6624 
L 252.665018 594.6624 
L 252.665018 400.517796 
L 248.769164 400.517796 
z
" style="fill:#4682b4;stroke:#000000;stroke-linejoin:miter;"/>
   </g>
   <g id="patch_11">
    <path clip-path="url(#pd18ee3eb46)" d="M 252.665018 594.6624 
L 256.560873 594.6624 
L 256.560873 224.863155 
L 252.665018 224.863155 
z
" style="fill:#4682b4;stroke:#000000;stroke-linejoin:miter;"/>
   </g>
   <g id="patch_12">
    <path clip-path="url(#pd18ee3eb46)" d="M 256.560873 594.6624 
L 260.456727 594.6624 
L 260.456727 280.333042 
L 256.560873 280.333042 
z
" style="fill:#4682b4;stroke:#000000;stroke-linejoin:miter;"/>
   </g>
   <g id="patch_13">
    <path clip-path="url(#pd18ee3eb46)" d="M 260.456727 594.6624 
L 264.352582 594.6624 
L 264.352582 104.6784 
L 260.456727 104.6784 
z
" style="fill:#4682b4;stroke:#000000;stroke-linejoin:miter;"/>
   </g>
   <g id="patch_14">
    <path clip-path="url(#pd18ee3eb46)" d="M 264.352582 594.6624 
L 268.248436 594.6624 
L 268.248436 160.148287 
L 264.352582 160.148287 
z
" style="fill:#4682b4;stroke:#000000;stroke-linejoin:miter;"/>
   </g>
   <g id="patch_15">
    <path clip-path="url(#pd18ee3eb46)" d="M 268.248436 594.6624 
L 272.144291 594.6624 
L 272.144291 187.88323 
L 268.248436 187.88323 
z
" style="fill:#4682b4;stroke:#000000;stroke-linejoin:miter;"/>
   </g>
   <g id="patch_16">
    <path clip-path="url(#pd18ee3eb46)" d="M 272.144291 594.6624 
L 276.040145 594.6624 
L 276.040145 160.148287 
L 272.144291 160.148287 
z
" style="fill:#4682b4;stroke:#000000;stroke-linejoin:miter;"/>
   </g>
   <g id="patch_17">
    <path clip-path="url(#pd18ee3eb46)" d="M 276.040145 594.6624 
L 279.936 594.6624 
L 279.936 206.373192 
L 276.040145 206.373192 
z
" style="fill:#4682b4;stroke:#000000;stroke-linejoin:miter;"/>
   </g>
   <g id="patch_18">
    <path clip-path="url(#pd18ee3eb46)" d="M 279.936 594.6624 
L 283.831855 594.6624 
L 283.831855 243.353117 
L 279.936 243.353117 
z
" style="fill:#4682b4;stroke:#000000;stroke-linejoin:miter;"/>
   </g>
   <g id="patch_19">
    <path clip-path="url(#pd18ee3eb46)" d="M 283.831855 594.6624 
L 287.727709 594.6624 
L 287.727709 363.537872 
L 283.831855 363.537872 
z
" style="fill:#4682b4;stroke:#000000;stroke-linejoin:miter;"/>
   </g>
   <g id="patch_20">
    <path clip-path="url(#pd18ee3eb46)" d="M 287.727709 594.6624 
L 291.623564 594.6624 
L 291.623564 511.45757 
L 287.727709 511.45757 
z
" style="fill:#4682b4;stroke:#000000;stroke-linejoin:miter;"/>
   </g>
   <g id="patch_21">
    <path clip-path="url(#pd18ee3eb46)" d="M 291.623564 594.6624 
L 295.519418 594.6624 
L 295.519418 529.947532 
L 291.623564 529.947532 
z
" style="fill:#4682b4;stroke:#000000;stroke-linejoin:miter;"/>
   </g>
   <g id="patch_22">
    <path clip-path="url(#pd18ee3eb46)" d="M 295.519418 594.6624 
L 299.415273 594.6624 
L 299.415273 502.212589 
L 295.519418 502.212589 
z
" style="fill:#4682b4;stroke:#000000;stroke-linejoin:miter;"/>
   </g>
   <g id="patch_23">
    <path clip-path="url(#pd18ee3eb46)" d="M 299.415273 594.6624 
L 303.311127 594.6624 
L 303.311127 529.947532 
L 299.415273 529.947532 
z
" style="fill:#4682b4;stroke:#000000;stroke-linejoin:miter;"/>
   </g>
   <g id="patch_24">
    <path clip-path="url(#pd18ee3eb46)" d="M 303.311127 594.6624 
L 307.206982 594.6624 
L 307.206982 529.947532 
L 303.311127 529.947532 
z
" style="fill:#4682b4;stroke:#000000;stroke-linejoin:miter;"/>
   </g>
   <g id="patch_25">
    <path clip-path="url(#pd18ee3eb46)" d="M 307.206982 594.6624 
L 311.102836 594.6624 
L 311.102836 529.947532 
L 307.206982 529.947532 
z
" style="fill:#4682b4;stroke:#000000;stroke-linejoin:miter;"/>
   </g>
   <g id="patch_26">
    <path clip-path="url(#pd18ee3eb46)" d="M 311.102836 594.6624 
L 314.998691 594.6624 
L 314.998691 566.927457 
L 311.102836 566.927457 
z
" style="fill:#4682b4;stroke:#000000;stroke-linejoin:miter;"/>
   </g>
   <g id="patch_27">
    <path clip-path="url(#pd18ee3eb46)" d="M 314.998691 594.6624 
L 318.894545 594.6624 
L 318.894545 585.417419 
L 314.998691 585.417419 
z
" style="fill:#4682b4;stroke:#000000;stroke-linejoin:miter;"/>
   </g>
   <g id="patch_28">
    <path clip-path="url(#pd18ee3eb46)" d="M 318.894545 594.6624 
L 322.7904 594.6624 
L 322.7904 548.437494 
L 318.894545 548.437494 
z
" style="fill:#4682b4;stroke:#000000;stroke-linejoin:miter;"/>
   </g>
   <g id="patch_29">
    <path clip-path="url(#pd18ee3eb46)" d="M 322.7904 594.6624 
L 326.686255 594.6624 
L 326.686255 548.437494 
L 322.7904 548.437494 
z
" style="fill:#4682b4;stroke:#000000;stroke-linejoin:miter;"/>
   </g>
   <g id="patch_30">
    <path clip-path="url(#pd18ee3eb46)" d="M 326.686255 594.6624 
L 330.582109 594.6624 
L 330.582109 548.437494 
L 326.686255 548.437494 
z
" style="fill:#4682b4;stroke:#000000;stroke-linejoin:miter;"/>
   </g>
   <g id="patch_31">
    <path clip-path="url(#pd18ee3eb46)" d="M 330.582109 594.6624 
L 334.477964 594.6624 
L 334.477964 511.45757 
L 330.582109 511.45757 
z
" style="fill:#4682b4;stroke:#000000;stroke-linejoin:miter;"/>
   </g>
   <g id="patch_32">
    <path clip-path="url(#pd18ee3eb46)" d="M 334.477964 594.6624 
L 338.373818 594.6624 
L 338.373818 511.45757 
L 334.477964 511.45757 
z
" style="fill:#4682b4;stroke:#000000;stroke-linejoin:miter;"/>
   </g>
   <g id="patch_33">
    <path clip-path="url(#pd18ee3eb46)" d="M 338.373818 594.6624 
L 342.269673 594.6624 
L 342.269673 548.437494 
L 338.373818 548.437494 
z
" style="fill:#4682b4;stroke:#000000;stroke-linejoin:miter;"/>
   </g>
   <g id="patch_34">
    <path clip-path="url(#pd18ee3eb46)" d="M 342.269673 594.6624 
L 346.165527 594.6624 
L 346.165527 529.947532 
L 342.269673 529.947532 
z
" style="fill:#4682b4;stroke:#000000;stroke-linejoin:miter;"/>
   </g>
   <g id="patch_35">
    <path clip-path="url(#pd18ee3eb46)" d="M 346.165527 594.6624 
L 350.061382 594.6624 
L 350.061382 492.967608 
L 346.165527 492.967608 
z
" style="fill:#4682b4;stroke:#000000;stroke-linejoin:miter;"/>
   </g>
   <g id="patch_36">
    <path clip-path="url(#pd18ee3eb46)" d="M 350.061382 594.6624 
L 353.957236 594.6624 
L 353.957236 548.437494 
L 350.061382 548.437494 
z
" style="fill:#4682b4;stroke:#000000;stroke-linejoin:miter;"/>
   </g>
   <g id="patch_37">
    <path clip-path="url(#pd18ee3eb46)" d="M 353.957236 594.6624 
L 357.853091 594.6624 
L 357.853091 502.212589 
L 353.957236 502.212589 
z
" style="fill:#4682b4;stroke:#000000;stroke-linejoin:miter;"/>
   </g>
   <g id="patch_38">
    <path clip-path="url(#pd18ee3eb46)" d="M 357.853091 594.6624 
L 361.748945 594.6624 
L 361.748945 483.722626 
L 357.853091 483.722626 
z
" style="fill:#4682b4;stroke:#000000;stroke-linejoin:miter;"/>
   </g>
   <g id="patch_39">
    <path clip-path="url(#pd18ee3eb46)" d="M 361.748945 594.6624 
L 365.6448 594.6624 
L 365.6448 520.702551 
L 361.748945 520.702551 
z
" style="fill:#4682b4;stroke:#000000;stroke-linejoin:miter;"/>
   </g>
   <g id="patch_40">
    <path clip-path="url(#pd18ee3eb46)" d="M 365.6448 594.6624 
L 369.540655 594.6624 
L 369.540655 557.682475 
L 365.6448 557.682475 
z
" style="fill:#4682b4;stroke:#000000;stroke-linejoin:miter;"/>
   </g>
   <g id="patch_41">
    <path clip-path="url(#pd18ee3eb46)" d="M 369.540655 594.6624 
L 373.436509 594.6624 
L 373.436509 492.967608 
L 369.540655 492.967608 
z
" style="fill:#4682b4;stroke:#000000;stroke-linejoin:miter;"/>
   </g>
   <g id="patch_42">
    <path clip-path="url(#pd18ee3eb46)" d="M 373.436509 594.6624 
L 377.332364 594.6624 
L 377.332364 539.192513 
L 373.436509 539.192513 
z
" style="fill:#4682b4;stroke:#000000;stroke-linejoin:miter;"/>
   </g>
   <g id="patch_43">
    <path clip-path="url(#pd18ee3eb46)" d="M 377.332364 594.6624 
L 381.228218 594.6624 
L 381.228218 474.477645 
L 377.332364 474.477645 
z
" style="fill:#4682b4;stroke:#000000;stroke-linejoin:miter;"/>
   </g>
   <g id="patch_44">
    <path clip-path="url(#pd18ee3eb46)" d="M 381.228218 594.6624 
L 385.124073 594.6624 
L 385.124073 502.212589 
L 381.228218 502.212589 
z
" style="fill:#4682b4;stroke:#000000;stroke-linejoin:miter;"/>
   </g>
   <g id="patch_45">
    <path clip-path="url(#pd18ee3eb46)" d="M 385.124073 594.6624 
L 389.019927 594.6624 
L 389.019927 502.212589 
L 385.124073 502.212589 
z
" style="fill:#4682b4;stroke:#000000;stroke-linejoin:miter;"/>
   </g>
   <g id="patch_46">
    <path clip-path="url(#pd18ee3eb46)" d="M 389.019927 594.6624 
L 392.915782 594.6624 
L 392.915782 502.212589 
L 389.019927 502.212589 
z
" style="fill:#4682b4;stroke:#000000;stroke-linejoin:miter;"/>
   </g>
   <g id="patch_47">
    <path clip-path="url(#pd18ee3eb46)" d="M 392.915782 594.6624 
L 396.811636 594.6624 
L 396.811636 529.947532 
L 392.915782 529.947532 
z
" style="fill:#4682b4;stroke:#000000;stroke-linejoin:miter;"/>
   </g>
   <g id="patch_48">
    <path clip-path="url(#pd18ee3eb46)" d="M 396.811636 594.6624 
L 400.707491 594.6624 
L 400.707491 492.967608 
L 396.811636 492.967608 
z
" style="fill:#4682b4;stroke:#000000;stroke-linejoin:miter;"/>
   </g>
   <g id="patch_49">
    <path clip-path="url(#pd18ee3eb46)" d="M 400.707491 594.6624 
L 404.603345 594.6624 
L 404.603345 529.947532 
L 400.707491 529.947532 
z
" style="fill:#4682b4;stroke:#000000;stroke-linejoin:miter;"/>
   </g>
   <g id="patch_50">
    <path clip-path="url(#pd18ee3eb46)" d="M 404.603345 594.6624 
L 408.4992 594.6624 
L 408.4992 520.702551 
L 404.603345 520.702551 
z
" style="fill:#4682b4;stroke:#000000;stroke-linejoin:miter;"/>
   </g>
   <g id="patch_51">
    <path clip-path="url(#pd18ee3eb46)" d="M 408.4992 594.6624 
L 412.395055 594.6624 
L 412.395055 520.702551 
L 408.4992 520.702551 
z
" style="fill:#4682b4;stroke:#000000;stroke-linejoin:miter;"/>
   </g>
   <g id="patch_52">
    <path clip-path="url(#pd18ee3eb46)" d="M 412.395055 594.6624 
L 416.290909 594.6624 
L 416.290909 529.947532 
L 412.395055 529.947532 
z
" style="fill:#4682b4;stroke:#000000;stroke-linejoin:miter;"/>
   </g>
   <g id="patch_53">
    <path clip-path="url(#pd18ee3eb46)" d="M 416.290909 594.6624 
L 420.186764 594.6624 
L 420.186764 502.212589 
L 416.290909 502.212589 
z
" style="fill:#4682b4;stroke:#000000;stroke-linejoin:miter;"/>
   </g>
   <g id="patch_54">
    <path clip-path="url(#pd18ee3eb46)" d="M 420.186764 594.6624 
L 424.082618 594.6624 
L 424.082618 557.682475 
L 420.186764 557.682475 
z
" style="fill:#4682b4;stroke:#000000;stroke-linejoin:miter;"/>
   </g>
   <g id="patch_55">
    <path clip-path="url(#pd18ee3eb46)" d="M 424.082618 594.6624 
L 427.978473 594.6624 
L 427.978473 520.702551 
L 424.082618 520.702551 
z
" style="fill:#4682b4;stroke:#000000;stroke-linejoin:miter;"/>
   </g>
   <g id="patch_56">
    <path clip-path="url(#pd18ee3eb46)" d="M 427.978473 594.6624 
L 431.874327 594.6624 
L 431.874327 548.437494 
L 427.978473 548.437494 
z
" style="fill:#4682b4;stroke:#000000;stroke-linejoin:miter;"/>
   </g>
   <g id="patch_57">
    <path clip-path="url(#pd18ee3eb46)" d="M 431.874327 594.6624 
L 435.770182 594.6624 
L 435.770182 529.947532 
L 431.874327 529.947532 
z
" style="fill:#4682b4;stroke:#000000;stroke-linejoin:miter;"/>
   </g>
   <g id="patch_58">
    <path clip-path="url(#pd18ee3eb46)" d="M 435.770182 594.6624 
L 439.666036 594.6624 
L 439.666036 539.192513 
L 435.770182 539.192513 
z
" style="fill:#4682b4;stroke:#000000;stroke-linejoin:miter;"/>
   </g>
   <g id="patch_59">
    <path clip-path="url(#pd18ee3eb46)" d="M 439.666036 594.6624 
L 443.561891 594.6624 
L 443.561891 483.722626 
L 439.666036 483.722626 
z
" style="fill:#4682b4;stroke:#000000;stroke-linejoin:miter;"/>
   </g>
   <g id="patch_60">
    <path clip-path="url(#pd18ee3eb46)" d="M 443.561891 594.6624 
L 447.457745 594.6624 
L 447.457745 548.437494 
L 443.561891 548.437494 
z
" style="fill:#4682b4;stroke:#000000;stroke-linejoin:miter;"/>
   </g>
   <g id="patch_61">
    <path clip-path="url(#pd18ee3eb46)" d="M 447.457745 594.6624 
L 451.3536 594.6624 
L 451.3536 520.702551 
L 447.457745 520.702551 
z
" style="fill:#4682b4;stroke:#000000;stroke-linejoin:miter;"/>
   </g>
   <g id="patch_62">
    <path clip-path="url(#pd18ee3eb46)" d="M 451.3536 594.6624 
L 455.249455 594.6624 
L 455.249455 529.947532 
L 451.3536 529.947532 
z
" style="fill:#4682b4;stroke:#000000;stroke-linejoin:miter;"/>
   </g>
   <g id="patch_63">
    <path clip-path="url(#pd18ee3eb46)" d="M 455.249455 594.6624 
L 459.145309 594.6624 
L 459.145309 548.437494 
L 455.249455 548.437494 
z
" style="fill:#4682b4;stroke:#000000;stroke-linejoin:miter;"/>
   </g>
   <g id="patch_64">
    <path clip-path="url(#pd18ee3eb46)" d="M 459.145309 594.6624 
L 463.041164 594.6624 
L 463.041164 548.437494 
L 459.145309 548.437494 
z
" style="fill:#4682b4;stroke:#000000;stroke-linejoin:miter;"/>
   </g>
   <g id="patch_65">
    <path clip-path="url(#pd18ee3eb46)" d="M 463.041164 594.6624 
L 466.937018 594.6624 
L 466.937018 529.947532 
L 463.041164 529.947532 
z
" style="fill:#4682b4;stroke:#000000;stroke-linejoin:miter;"/>
   </g>
   <g id="patch_66">
    <path clip-path="url(#pd18ee3eb46)" d="M 466.937018 594.6624 
L 470.832873 594.6624 
L 470.832873 557.682475 
L 466.937018 557.682475 
z
" style="fill:#4682b4;stroke:#000000;stroke-linejoin:miter;"/>
   </g>
   <g id="patch_67">
    <path clip-path="url(#pd18ee3eb46)" d="M 470.832873 594.6624 
L 474.728727 594.6624 
L 474.728727 548.437494 
L 470.832873 548.437494 
z
" style="fill:#4682b4;stroke:#000000;stroke-linejoin:miter;"/>
   </g>
   <g id="patch_68">
    <path clip-path="url(#pd18ee3eb46)" d="M 474.728727 594.6624 
L 478.624582 594.6624 
L 478.624582 520.702551 
L 474.728727 520.702551 
z
" style="fill:#4682b4;stroke:#000000;stroke-linejoin:miter;"/>
   </g>
   <g id="patch_69">
    <path clip-path="url(#pd18ee3eb46)" d="M 478.624582 594.6624 
L 482.520436 594.6624 
L 482.520436 548.437494 
L 478.624582 548.437494 
z
" style="fill:#4682b4;stroke:#000000;stroke-linejoin:miter;"/>
   </g>
   <g id="patch_70">
    <path clip-path="url(#pd18ee3eb46)" d="M 482.520436 594.6624 
L 486.416291 594.6624 
L 486.416291 557.682475 
L 482.520436 557.682475 
z
" style="fill:#4682b4;stroke:#000000;stroke-linejoin:miter;"/>
   </g>
   <g id="patch_71">
    <path clip-path="url(#pd18ee3eb46)" d="M 486.416291 594.6624 
L 490.312145 594.6624 
L 490.312145 539.192513 
L 486.416291 539.192513 
z
" style="fill:#4682b4;stroke:#000000;stroke-linejoin:miter;"/>
   </g>
   <g id="patch_72">
    <path clip-path="url(#pd18ee3eb46)" d="M 490.312145 594.6624 
L 494.208 594.6624 
L 494.208 529.947532 
L 490.312145 529.947532 
z
" style="fill:#4682b4;stroke:#000000;stroke-linejoin:miter;"/>
   </g>
   <g id="patch_73">
    <path clip-path="url(#pd18ee3eb46)" d="M 494.208 594.6624 
L 498.103855 594.6624 
L 498.103855 557.682475 
L 494.208 557.682475 
z
" style="fill:#4682b4;stroke:#000000;stroke-linejoin:miter;"/>
   </g>
   <g id="patch_74">
    <path clip-path="url(#pd18ee3eb46)" d="M 498.103855 594.6624 
L 501.999709 594.6624 
L 501.999709 502.212589 
L 498.103855 502.212589 
z
" style="fill:#4682b4;stroke:#000000;stroke-linejoin:miter;"/>
   </g>
   <g id="patch_75">
    <path clip-path="url(#pd18ee3eb46)" d="M 501.999709 594.6624 
L 505.895564 594.6624 
L 505.895564 548.437494 
L 501.999709 548.437494 
z
" style="fill:#4682b4;stroke:#000000;stroke-linejoin:miter;"/>
   </g>
   <g id="patch_76">
    <path clip-path="url(#pd18ee3eb46)" d="M 505.895564 594.6624 
L 509.791418 594.6624 
L 509.791418 566.927457 
L 505.895564 566.927457 
z
" style="fill:#4682b4;stroke:#000000;stroke-linejoin:miter;"/>
   </g>
   <g id="patch_77">
    <path clip-path="url(#pd18ee3eb46)" d="M 509.791418 594.6624 
L 513.687273 594.6624 
L 513.687273 576.172438 
L 509.791418 576.172438 
z
" style="fill:#4682b4;stroke:#000000;stroke-linejoin:miter;"/>
   </g>
   <g id="patch_78">
    <path clip-path="url(#pd18ee3eb46)" d="M 513.687273 594.6624 
L 517.583127 594.6624 
L 517.583127 548.437494 
L 513.687273 548.437494 
z
" style="fill:#4682b4;stroke:#000000;stroke-linejoin:miter;"/>
   </g>
   <g id="patch_79">
    <path clip-path="url(#pd18ee3eb46)" d="M 517.583127 594.6624 
L 521.478982 594.6624 
L 521.478982 548.437494 
L 517.583127 548.437494 
z
" style="fill:#4682b4;stroke:#000000;stroke-linejoin:miter;"/>
   </g>
   <g id="patch_80">
    <path clip-path="url(#pd18ee3eb46)" d="M 521.478982 594.6624 
L 525.374836 594.6624 
L 525.374836 539.192513 
L 521.478982 539.192513 
z
" style="fill:#4682b4;stroke:#000000;stroke-linejoin:miter;"/>
   </g>
   <g id="patch_81">
    <path clip-path="url(#pd18ee3eb46)" d="M 525.374836 594.6624 
L 529.270691 594.6624 
L 529.270691 539.192513 
L 525.374836 539.192513 
z
" style="fill:#4682b4;stroke:#000000;stroke-linejoin:miter;"/>
   </g>
   <g id="patch_82">
    <path clip-path="url(#pd18ee3eb46)" d="M 529.270691 594.6624 
L 533.166545 594.6624 
L 533.166545 566.927457 
L 529.270691 566.927457 
z
" style="fill:#4682b4;stroke:#000000;stroke-linejoin:miter;"/>
   </g>
   <g id="patch_83">
    <path clip-path="url(#pd18ee3eb46)" d="M 533.166545 594.6624 
L 537.0624 594.6624 
L 537.0624 520.702551 
L 533.166545 520.702551 
z
" style="fill:#4682b4;stroke:#000000;stroke-linejoin:miter;"/>
   </g>
   <g id="patch_84">
    <path clip-path="url(#pd18ee3eb46)" d="M 537.0624 594.6624 
L 540.958255 594.6624 
L 540.958255 548.437494 
L 537.0624 548.437494 
z
" style="fill:#4682b4;stroke:#000000;stroke-linejoin:miter;"/>
   </g>
   <g id="patch_85">
    <path clip-path="url(#pd18ee3eb46)" d="M 540.958255 594.6624 
L 544.854109 594.6624 
L 544.854109 566.927457 
L 540.958255 566.927457 
z
" style="fill:#4682b4;stroke:#000000;stroke-linejoin:miter;"/>
   </g>
   <g id="patch_86">
    <path clip-path="url(#pd18ee3eb46)" d="M 544.854109 594.6624 
L 548.749964 594.6624 
L 548.749964 557.682475 
L 544.854109 557.682475 
z
" style="fill:#4682b4;stroke:#000000;stroke-linejoin:miter;"/>
   </g>
   <g id="patch_87">
    <path clip-path="url(#pd18ee3eb46)" d="M 548.749964 594.6624 
L 552.645818 594.6624 
L 552.645818 585.417419 
L 548.749964 585.417419 
z
" style="fill:#4682b4;stroke:#000000;stroke-linejoin:miter;"/>
   </g>
   <g id="patch_88">
    <path clip-path="url(#pd18ee3eb46)" d="M 552.645818 594.6624 
L 556.541673 594.6624 
L 556.541673 557.682475 
L 552.645818 557.682475 
z
" style="fill:#4682b4;stroke:#000000;stroke-linejoin:miter;"/>
   </g>
   <g id="patch_89">
    <path clip-path="url(#pd18ee3eb46)" d="M 556.541673 594.6624 
L 560.437527 594.6624 
L 560.437527 548.437494 
L 556.541673 548.437494 
z
" style="fill:#4682b4;stroke:#000000;stroke-linejoin:miter;"/>
   </g>
   <g id="patch_90">
    <path clip-path="url(#pd18ee3eb46)" d="M 560.437527 594.6624 
L 564.333382 594.6624 
L 564.333382 576.172438 
L 560.437527 576.172438 
z
" style="fill:#4682b4;stroke:#000000;stroke-linejoin:miter;"/>
   </g>
   <g id="patch_91">
    <path clip-path="url(#pd18ee3eb46)" d="M 564.333382 594.6624 
L 568.229236 594.6624 
L 568.229236 566.927457 
L 564.333382 566.927457 
z
" style="fill:#4682b4;stroke:#000000;stroke-linejoin:miter;"/>
   </g>
   <g id="patch_92">
    <path clip-path="url(#pd18ee3eb46)" d="M 568.229236 594.6624 
L 572.125091 594.6624 
L 572.125091 576.172438 
L 568.229236 576.172438 
z
" style="fill:#4682b4;stroke:#000000;stroke-linejoin:miter;"/>
   </g>
   <g id="patch_93">
    <path clip-path="url(#pd18ee3eb46)" d="M 572.125091 594.6624 
L 576.020945 594.6624 
L 576.020945 594.6624 
L 572.125091 594.6624 
z
" style="fill:#4682b4;stroke:#000000;stroke-linejoin:miter;"/>
   </g>
   <g id="patch_94">
    <path clip-path="url(#pd18ee3eb46)" d="M 576.020945 594.6624 
L 579.9168 594.6624 
L 579.9168 576.172438 
L 576.020945 576.172438 
z
" style="fill:#4682b4;stroke:#000000;stroke-linejoin:miter;"/>
   </g>
   <g id="patch_95">
    <path clip-path="url(#pd18ee3eb46)" d="M 579.9168 594.6624 
L 583.812655 594.6624 
L 583.812655 557.682475 
L 579.9168 557.682475 
z
" style="fill:#4682b4;stroke:#000000;stroke-linejoin:miter;"/>
   </g>
   <g id="patch_96">
    <path clip-path="url(#pd18ee3eb46)" d="M 583.812655 594.6624 
L 587.708509 594.6624 
L 587.708509 585.417419 
L 583.812655 585.417419 
z
" style="fill:#4682b4;stroke:#000000;stroke-linejoin:miter;"/>
   </g>
   <g id="patch_97">
    <path clip-path="url(#pd18ee3eb46)" d="M 587.708509 594.6624 
L 591.604364 594.6624 
L 591.604364 557.682475 
L 587.708509 557.682475 
z
" style="fill:#4682b4;stroke:#000000;stroke-linejoin:miter;"/>
   </g>
   <g id="patch_98">
    <path clip-path="url(#pd18ee3eb46)" d="M 591.604364 594.6624 
L 595.500218 594.6624 
L 595.500218 566.927457 
L 591.604364 566.927457 
z
" style="fill:#4682b4;stroke:#000000;stroke-linejoin:miter;"/>
   </g>
   <g id="patch_99">
    <path clip-path="url(#pd18ee3eb46)" d="M 595.500218 594.6624 
L 599.396073 594.6624 
L 599.396073 585.417419 
L 595.500218 585.417419 
z
" style="fill:#4682b4;stroke:#000000;stroke-linejoin:miter;"/>
   </g>
   <g id="patch_100">
    <path clip-path="url(#pd18ee3eb46)" d="M 599.396073 594.6624 
L 603.291927 594.6624 
L 603.291927 576.172438 
L 599.396073 576.172438 
z
" style="fill:#4682b4;stroke:#000000;stroke-linejoin:miter;"/>
   </g>
   <g id="patch_101">
    <path clip-path="url(#pd18ee3eb46)" d="M 603.291927 594.6624 
L 607.187782 594.6624 
L 607.187782 557.682475 
L 603.291927 557.682475 
z
" style="fill:#4682b4;stroke:#000000;stroke-linejoin:miter;"/>
   </g>
   <g id="patch_102">
    <path clip-path="url(#pd18ee3eb46)" d="M 607.187782 594.6624 
L 611.083636 594.6624 
L 611.083636 576.172438 
L 607.187782 576.172438 
z
" style="fill:#4682b4;stroke:#000000;stroke-linejoin:miter;"/>
   </g>
   <g id="patch_103">
    <path clip-path="url(#pd18ee3eb46)" d="M 611.083636 594.6624 
L 614.979491 594.6624 
L 614.979491 576.172438 
L 611.083636 576.172438 
z
" style="fill:#4682b4;stroke:#000000;stroke-linejoin:miter;"/>
   </g>
   <g id="patch_104">
    <path clip-path="url(#pd18ee3eb46)" d="M 614.979491 594.6624 
L 618.875345 594.6624 
L 618.875345 585.417419 
L 614.979491 585.417419 
z
" style="fill:#4682b4;stroke:#000000;stroke-linejoin:miter;"/>
   </g>
   <g id="patch_105">
    <path clip-path="url(#pd18ee3eb46)" d="M 618.875345 594.6624 
L 622.7712 594.6624 
L 622.7712 576.172438 
L 618.875345 576.172438 
z
" style="fill:#4682b4;stroke:#000000;stroke-linejoin:miter;"/>
   </g>
   <g id="patch_106">
    <path clip-path="url(#pd18ee3eb46)" d="M 622.7712 594.6624 
L 626.667055 594.6624 
L 626.667055 566.927457 
L 622.7712 566.927457 
z
" style="fill:#4682b4;stroke:#000000;stroke-linejoin:miter;"/>
   </g>
   <g id="patch_107">
    <path clip-path="url(#pd18ee3eb46)" d="M 626.667055 594.6624 
L 630.562909 594.6624 
L 630.562909 585.417419 
L 626.667055 585.417419 
z
" style="fill:#4682b4;stroke:#000000;stroke-linejoin:miter;"/>
   </g>
   <g id="patch_108">
    <path clip-path="url(#pd18ee3eb46)" d="M 630.562909 594.6624 
L 634.458764 594.6624 
L 634.458764 585.417419 
L 630.562909 585.417419 
z
" style="fill:#4682b4;stroke:#000000;stroke-linejoin:miter;"/>
   </g>
   <g id="patch_109">
    <path clip-path="url(#pd18ee3eb46)" d="M 634.458764 594.6624 
L 638.354618 594.6624 
L 638.354618 585.417419 
L 634.458764 585.417419 
z
" style="fill:#4682b4;stroke:#000000;stroke-linejoin:miter;"/>
   </g>
   <g id="patch_110">
    <path clip-path="url(#pd18ee3eb46)" d="M 638.354618 594.6624 
L 642.250473 594.6624 
L 642.250473 566.927457 
L 638.354618 566.927457 
z
" style="fill:#4682b4;stroke:#000000;stroke-linejoin:miter;"/>
   </g>
   <g id="patch_111">
    <path clip-path="url(#pd18ee3eb46)" d="M 642.250473 594.6624 
L 646.146327 594.6624 
L 646.146327 557.682475 
L 642.250473 557.682475 
z
" style="fill:#4682b4;stroke:#000000;stroke-linejoin:miter;"/>
   </g>
   <g id="patch_112">
    <path clip-path="url(#pd18ee3eb46)" d="M 646.146327 594.6624 
L 650.042182 594.6624 
L 650.042182 585.417419 
L 646.146327 585.417419 
z
" style="fill:#4682b4;stroke:#000000;stroke-linejoin:miter;"/>
   </g>
   <g id="patch_113">
    <path clip-path="url(#pd18ee3eb46)" d="M 650.042182 594.6624 
L 653.938036 594.6624 
L 653.938036 557.682475 
L 650.042182 557.682475 
z
" style="fill:#4682b4;stroke:#000000;stroke-linejoin:miter;"/>
   </g>
   <g id="patch_114">
    <path clip-path="url(#pd18ee3eb46)" d="M 653.938036 594.6624 
L 657.833891 594.6624 
L 657.833891 585.417419 
L 653.938036 585.417419 
z
" style="fill:#4682b4;stroke:#000000;stroke-linejoin:miter;"/>
   </g>
   <g id="patch_115">
    <path clip-path="url(#pd18ee3eb46)" d="M 657.833891 594.6624 
L 661.729745 594.6624 
L 661.729745 585.417419 
L 657.833891 585.417419 
z
" style="fill:#4682b4;stroke:#000000;stroke-linejoin:miter;"/>
   </g>
   <g id="patch_116">
    <path clip-path="url(#pd18ee3eb46)" d="M 661.729745 594.6624 
L 665.6256 594.6624 
L 665.6256 585.417419 
L 661.729745 585.417419 
z
" style="fill:#4682b4;stroke:#000000;stroke-linejoin:miter;"/>
   </g>
   <g id="patch_117">
    <path clip-path="url(#pd18ee3eb46)" d="M 665.6256 594.6624 
L 669.521455 594.6624 
L 669.521455 594.6624 
L 665.6256 594.6624 
z
" style="fill:#4682b4;stroke:#000000;stroke-linejoin:miter;"/>
   </g>
   <g id="patch_118">
    <path clip-path="url(#pd18ee3eb46)" d="M 669.521455 594.6624 
L 673.417309 594.6624 
L 673.417309 566.927457 
L 669.521455 566.927457 
z
" style="fill:#4682b4;stroke:#000000;stroke-linejoin:miter;"/>
   </g>
   <g id="patch_119">
    <path clip-path="url(#pd18ee3eb46)" d="M 673.417309 594.6624 
L 677.313164 594.6624 
L 677.313164 557.682475 
L 673.417309 557.682475 
z
" style="fill:#4682b4;stroke:#000000;stroke-linejoin:miter;"/>
   </g>
   <g id="patch_120">
    <path clip-path="url(#pd18ee3eb46)" d="M 677.313164 594.6624 
L 681.209018 594.6624 
L 681.209018 585.417419 
L 677.313164 585.417419 
z
" style="fill:#4682b4;stroke:#000000;stroke-linejoin:miter;"/>
   </g>
   <g id="patch_121">
    <path clip-path="url(#pd18ee3eb46)" d="M 681.209018 594.6624 
L 685.104873 594.6624 
L 685.104873 585.417419 
L 681.209018 585.417419 
z
" style="fill:#4682b4;stroke:#000000;stroke-linejoin:miter;"/>
   </g>
   <g id="patch_122">
    <path clip-path="url(#pd18ee3eb46)" d="M 685.104873 594.6624 
L 689.000727 594.6624 
L 689.000727 594.6624 
L 685.104873 594.6624 
z
" style="fill:#4682b4;stroke:#000000;stroke-linejoin:miter;"/>
   </g>
   <g id="patch_123">
    <path clip-path="url(#pd18ee3eb46)" d="M 689.000727 594.6624 
L 692.896582 594.6624 
L 692.896582 585.417419 
L 689.000727 585.417419 
z
" style="fill:#4682b4;stroke:#000000;stroke-linejoin:miter;"/>
   </g>
   <g id="patch_124">
    <path clip-path="url(#pd18ee3eb46)" d="M 692.896582 594.6624 
L 696.792436 594.6624 
L 696.792436 585.417419 
L 692.896582 585.417419 
z
" style="fill:#4682b4;stroke:#000000;stroke-linejoin:miter;"/>
   </g>
   <g id="patch_125">
    <path clip-path="url(#pd18ee3eb46)" d="M 696.792436 594.6624 
L 700.688291 594.6624 
L 700.688291 566.927457 
L 696.792436 566.927457 
z
" style="fill:#4682b4;stroke:#000000;stroke-linejoin:miter;"/>
   </g>
   <g id="patch_126">
    <path clip-path="url(#pd18ee3eb46)" d="M 700.688291 594.6624 
L 704.584145 594.6624 
L 704.584145 594.6624 
L 700.688291 594.6624 
z
" style="fill:#4682b4;stroke:#000000;stroke-linejoin:miter;"/>
   </g>
   <g id="patch_127">
    <path clip-path="url(#pd18ee3eb46)" d="M 704.584145 594.6624 
L 708.48 594.6624 
L 708.48 594.6624 
L 704.584145 594.6624 
z
" style="fill:#4682b4;stroke:#000000;stroke-linejoin:miter;"/>
   </g>
   <g id="patch_128">
    <path clip-path="url(#pd18ee3eb46)" d="M 708.48 594.6624 
L 712.375855 594.6624 
L 712.375855 594.6624 
L 708.48 594.6624 
z
" style="fill:#4682b4;stroke:#000000;stroke-linejoin:miter;"/>
   </g>
   <g id="patch_129">
    <path clip-path="url(#pd18ee3eb46)" d="M 712.375855 594.6624 
L 716.271709 594.6624 
L 716.271709 566.927457 
L 712.375855 566.927457 
z
" style="fill:#4682b4;stroke:#000000;stroke-linejoin:miter;"/>
   </g>
   <g id="patch_130">
    <path clip-path="url(#pd18ee3eb46)" d="M 716.271709 594.6624 
L 720.167564 594.6624 
L 720.167564 585.417419 
L 716.271709 585.417419 
z
" style="fill:#4682b4;stroke:#000000;stroke-linejoin:miter;"/>
   </g>
   <g id="patch_131">
    <path clip-path="url(#pd18ee3eb46)" d="M 720.167564 594.6624 
L 724.063418 594.6624 
L 724.063418 594.6624 
L 720.167564 594.6624 
z
" style="fill:#4682b4;stroke:#000000;stroke-linejoin:miter;"/>
   </g>
   <g id="patch_132">
    <path clip-path="url(#pd18ee3eb46)" d="M 724.063418 594.6624 
L 727.959273 594.6624 
L 727.959273 585.417419 
L 724.063418 585.417419 
z
" style="fill:#4682b4;stroke:#000000;stroke-linejoin:miter;"/>
   </g>
   <g id="patch_133">
    <path clip-path="url(#pd18ee3eb46)" d="M 727.959273 594.6624 
L 731.855127 594.6624 
L 731.855127 585.417419 
L 727.959273 585.417419 
z
" style="fill:#4682b4;stroke:#000000;stroke-linejoin:miter;"/>
   </g>
   <g id="patch_134">
    <path clip-path="url(#pd18ee3eb46)" d="M 731.855127 594.6624 
L 735.750982 594.6624 
L 735.750982 594.6624 
L 731.855127 594.6624 
z
" style="fill:#4682b4;stroke:#000000;stroke-linejoin:miter;"/>
   </g>
   <g id="patch_135">
    <path clip-path="url(#pd18ee3eb46)" d="M 735.750982 594.6624 
L 739.646836 594.6624 
L 739.646836 594.6624 
L 735.750982 594.6624 
z
" style="fill:#4682b4;stroke:#000000;stroke-linejoin:miter;"/>
   </g>
   <g id="patch_136">
    <path clip-path="url(#pd18ee3eb46)" d="M 739.646836 594.6624 
L 743.542691 594.6624 
L 743.542691 585.417419 
L 739.646836 585.417419 
z
" style="fill:#4682b4;stroke:#000000;stroke-linejoin:miter;"/>
   </g>
   <g id="patch_137">
    <path clip-path="url(#pd18ee3eb46)" d="M 743.542691 594.6624 
L 747.438545 594.6624 
L 747.438545 585.417419 
L 743.542691 585.417419 
z
" style="fill:#4682b4;stroke:#000000;stroke-linejoin:miter;"/>
   </g>
   <g id="patch_138">
    <path clip-path="url(#pd18ee3eb46)" d="M 747.438545 594.6624 
L 751.3344 594.6624 
L 751.3344 594.6624 
L 747.438545 594.6624 
z
" style="fill:#4682b4;stroke:#000000;stroke-linejoin:miter;"/>
   </g>
   <g id="patch_139">
    <path clip-path="url(#pd18ee3eb46)" d="M 751.3344 594.6624 
L 755.230255 594.6624 
L 755.230255 594.6624 
L 751.3344 594.6624 
z
" style="fill:#4682b4;stroke:#000000;stroke-linejoin:miter;"/>
   </g>
   <g id="patch_140">
    <path clip-path="url(#pd18ee3eb46)" d="M 755.230255 594.6624 
L 759.126109 594.6624 
L 759.126109 576.172438 
L 755.230255 576.172438 
z
" style="fill:#4682b4;stroke:#000000;stroke-linejoin:miter;"/>
   </g>
   <g id="patch_141">
    <path clip-path="url(#pd18ee3eb46)" d="M 759.126109 594.6624 
L 763.021964 594.6624 
L 763.021964 566.927457 
L 759.126109 566.927457 
z
" style="fill:#4682b4;stroke:#000000;stroke-linejoin:miter;"/>
   </g>
   <g id="patch_142">
    <path clip-path="url(#pd18ee3eb46)" d="M 763.021964 594.6624 
L 766.917818 594.6624 
L 766.917818 585.417419 
L 763.021964 585.417419 
z
" style="fill:#4682b4;stroke:#000000;stroke-linejoin:miter;"/>
   </g>
   <g id="patch_143">
    <path clip-path="url(#pd18ee3eb46)" d="M 766.917818 594.6624 
L 770.813673 594.6624 
L 770.813673 594.6624 
L 766.917818 594.6624 
z
" style="fill:#4682b4;stroke:#000000;stroke-linejoin:miter;"/>
   </g>
   <g id="patch_144">
    <path clip-path="url(#pd18ee3eb46)" d="M 770.813673 594.6624 
L 774.709527 594.6624 
L 774.709527 585.417419 
L 770.813673 585.417419 
z
" style="fill:#4682b4;stroke:#000000;stroke-linejoin:miter;"/>
   </g>
   <g id="patch_145">
    <path clip-path="url(#pd18ee3eb46)" d="M 774.709527 594.6624 
L 778.605382 594.6624 
L 778.605382 594.6624 
L 774.709527 594.6624 
z
" style="fill:#4682b4;stroke:#000000;stroke-linejoin:miter;"/>
   </g>
   <g id="patch_146">
    <path clip-path="url(#pd18ee3eb46)" d="M 778.605382 594.6624 
L 782.501236 594.6624 
L 782.501236 594.6624 
L 778.605382 594.6624 
z
" style="fill:#4682b4;stroke:#000000;stroke-linejoin:miter;"/>
   </g>
   <g id="patch_147">
    <path clip-path="url(#pd18ee3eb46)" d="M 782.501236 594.6624 
L 786.397091 594.6624 
L 786.397091 585.417419 
L 782.501236 585.417419 
z
" style="fill:#4682b4;stroke:#000000;stroke-linejoin:miter;"/>
   </g>
   <g id="patch_148">
    <path clip-path="url(#pd18ee3eb46)" d="M 786.397091 594.6624 
L 790.292945 594.6624 
L 790.292945 594.6624 
L 786.397091 594.6624 
z
" style="fill:#4682b4;stroke:#000000;stroke-linejoin:miter;"/>
   </g>
   <g id="patch_149">
    <path clip-path="url(#pd18ee3eb46)" d="M 790.292945 594.6624 
L 794.1888 594.6624 
L 794.1888 585.417419 
L 790.292945 585.417419 
z
" style="fill:#4682b4;stroke:#000000;stroke-linejoin:miter;"/>
   </g>
   <g id="patch_150">
    <path clip-path="url(#pd18ee3eb46)" d="M 794.1888 594.6624 
L 798.084655 594.6624 
L 798.084655 576.172438 
L 794.1888 576.172438 
z
" style="fill:#4682b4;stroke:#000000;stroke-linejoin:miter;"/>
   </g>
   <g id="patch_151">
    <path clip-path="url(#pd18ee3eb46)" d="M 798.084655 594.6624 
L 801.980509 594.6624 
L 801.980509 585.417419 
L 798.084655 585.417419 
z
" style="fill:#4682b4;stroke:#000000;stroke-linejoin:miter;"/>
   </g>
   <g id="patch_152">
    <path clip-path="url(#pd18ee3eb46)" d="M 801.980509 594.6624 
L 805.876364 594.6624 
L 805.876364 594.6624 
L 801.980509 594.6624 
z
" style="fill:#4682b4;stroke:#000000;stroke-linejoin:miter;"/>
   </g>
   <g id="patch_153">
    <path clip-path="url(#pd18ee3eb46)" d="M 805.876364 594.6624 
L 809.772218 594.6624 
L 809.772218 594.6624 
L 805.876364 594.6624 
z
" style="fill:#4682b4;stroke:#000000;stroke-linejoin:miter;"/>
   </g>
   <g id="patch_154">
    <path clip-path="url(#pd18ee3eb46)" d="M 809.772218 594.6624 
L 813.668073 594.6624 
L 813.668073 594.6624 
L 809.772218 594.6624 
z
" style="fill:#4682b4;stroke:#000000;stroke-linejoin:miter;"/>
   </g>
   <g id="patch_155">
    <path clip-path="url(#pd18ee3eb46)" d="M 813.668073 594.6624 
L 817.563927 594.6624 
L 817.563927 594.6624 
L 813.668073 594.6624 
z
" style="fill:#4682b4;stroke:#000000;stroke-linejoin:miter;"/>
   </g>
   <g id="patch_156">
    <path clip-path="url(#pd18ee3eb46)" d="M 817.563927 594.6624 
L 821.459782 594.6624 
L 821.459782 585.417419 
L 817.563927 585.417419 
z
" style="fill:#4682b4;stroke:#000000;stroke-linejoin:miter;"/>
   </g>
   <g id="patch_157">
    <path clip-path="url(#pd18ee3eb46)" d="M 821.459782 594.6624 
L 825.355636 594.6624 
L 825.355636 576.172438 
L 821.459782 576.172438 
z
" style="fill:#4682b4;stroke:#000000;stroke-linejoin:miter;"/>
   </g>
   <g id="patch_158">
    <path clip-path="url(#pd18ee3eb46)" d="M 825.355636 594.6624 
L 829.251491 594.6624 
L 829.251491 594.6624 
L 825.355636 594.6624 
z
" style="fill:#4682b4;stroke:#000000;stroke-linejoin:miter;"/>
   </g>
   <g id="patch_159">
    <path clip-path="url(#pd18ee3eb46)" d="M 829.251491 594.6624 
L 833.147345 594.6624 
L 833.147345 594.6624 
L 829.251491 594.6624 
z
" style="fill:#4682b4;stroke:#000000;stroke-linejoin:miter;"/>
   </g>
   <g id="patch_160">
    <path clip-path="url(#pd18ee3eb46)" d="M 833.147345 594.6624 
L 837.0432 594.6624 
L 837.0432 594.6624 
L 833.147345 594.6624 
z
" style="fill:#4682b4;stroke:#000000;stroke-linejoin:miter;"/>
   </g>
   <g id="patch_161">
    <path clip-path="url(#pd18ee3eb46)" d="M 837.0432 594.6624 
L 840.939055 594.6624 
L 840.939055 594.6624 
L 837.0432 594.6624 
z
" style="fill:#4682b4;stroke:#000000;stroke-linejoin:miter;"/>
   </g>
   <g id="patch_162">
    <path clip-path="url(#pd18ee3eb46)" d="M 840.939055 594.6624 
L 844.834909 594.6624 
L 844.834909 585.417419 
L 840.939055 585.417419 
z
" style="fill:#4682b4;stroke:#000000;stroke-linejoin:miter;"/>
   </g>
   <g id="patch_163">
    <path clip-path="url(#pd18ee3eb46)" d="M 844.834909 594.6624 
L 848.730764 594.6624 
L 848.730764 594.6624 
L 844.834909 594.6624 
z
" style="fill:#4682b4;stroke:#000000;stroke-linejoin:miter;"/>
   </g>
   <g id="patch_164">
    <path clip-path="url(#pd18ee3eb46)" d="M 848.730764 594.6624 
L 852.626618 594.6624 
L 852.626618 594.6624 
L 848.730764 594.6624 
z
" style="fill:#4682b4;stroke:#000000;stroke-linejoin:miter;"/>
   </g>
   <g id="patch_165">
    <path clip-path="url(#pd18ee3eb46)" d="M 852.626618 594.6624 
L 856.522473 594.6624 
L 856.522473 594.6624 
L 852.626618 594.6624 
z
" style="fill:#4682b4;stroke:#000000;stroke-linejoin:miter;"/>
   </g>
   <g id="patch_166">
    <path clip-path="url(#pd18ee3eb46)" d="M 856.522473 594.6624 
L 860.418327 594.6624 
L 860.418327 585.417419 
L 856.522473 585.417419 
z
" style="fill:#4682b4;stroke:#000000;stroke-linejoin:miter;"/>
   </g>
   <g id="patch_167">
    <path clip-path="url(#pd18ee3eb46)" d="M 860.418327 594.6624 
L 864.314182 594.6624 
L 864.314182 594.6624 
L 860.418327 594.6624 
z
" style="fill:#4682b4;stroke:#000000;stroke-linejoin:miter;"/>
   </g>
   <g id="patch_168">
    <path clip-path="url(#pd18ee3eb46)" d="M 864.314182 594.6624 
L 868.210036 594.6624 
L 868.210036 594.6624 
L 864.314182 594.6624 
z
" style="fill:#4682b4;stroke:#000000;stroke-linejoin:miter;"/>
   </g>
   <g id="patch_169">
    <path clip-path="url(#pd18ee3eb46)" d="M 868.210036 594.6624 
L 872.105891 594.6624 
L 872.105891 594.6624 
L 868.210036 594.6624 
z
" style="fill:#4682b4;stroke:#000000;stroke-linejoin:miter;"/>
   </g>
   <g id="patch_170">
    <path clip-path="url(#pd18ee3eb46)" d="M 872.105891 594.6624 
L 876.001745 594.6624 
L 876.001745 585.417419 
L 872.105891 585.417419 
z
" style="fill:#4682b4;stroke:#000000;stroke-linejoin:miter;"/>
   </g>
   <g id="patch_171">
    <path clip-path="url(#pd18ee3eb46)" d="M 876.001745 594.6624 
L 879.8976 594.6624 
L 879.8976 594.6624 
L 876.001745 594.6624 
z
" style="fill:#4682b4;stroke:#000000;stroke-linejoin:miter;"/>
   </g>
   <g id="patch_172">
    <path clip-path="url(#pd18ee3eb46)" d="M 879.8976 594.6624 
L 883.793455 594.6624 
L 883.793455 585.417419 
L 879.8976 585.417419 
z
" style="fill:#4682b4;stroke:#000000;stroke-linejoin:miter;"/>
   </g>
   <g id="patch_173">
    <path clip-path="url(#pd18ee3eb46)" d="M 883.793455 594.6624 
L 887.689309 594.6624 
L 887.689309 594.6624 
L 883.793455 594.6624 
z
" style="fill:#4682b4;stroke:#000000;stroke-linejoin:miter;"/>
   </g>
   <g id="patch_174">
    <path clip-path="url(#pd18ee3eb46)" d="M 887.689309 594.6624 
L 891.585164 594.6624 
L 891.585164 594.6624 
L 887.689309 594.6624 
z
" style="fill:#4682b4;stroke:#000000;stroke-linejoin:miter;"/>
   </g>
   <g id="patch_175">
    <path clip-path="url(#pd18ee3eb46)" d="M 891.585164 594.6624 
L 895.481018 594.6624 
L 895.481018 594.6624 
L 891.585164 594.6624 
z
" style="fill:#4682b4;stroke:#000000;stroke-linejoin:miter;"/>
   </g>
   <g id="patch_176">
    <path clip-path="url(#pd18ee3eb46)" d="M 895.481018 594.6624 
L 899.376873 594.6624 
L 899.376873 594.6624 
L 895.481018 594.6624 
z
" style="fill:#4682b4;stroke:#000000;stroke-linejoin:miter;"/>
   </g>
   <g id="patch_177">
    <path clip-path="url(#pd18ee3eb46)" d="M 899.376873 594.6624 
L 903.272727 594.6624 
L 903.272727 594.6624 
L 899.376873 594.6624 
z
" style="fill:#4682b4;stroke:#000000;stroke-linejoin:miter;"/>
   </g>
   <g id="patch_178">
    <path clip-path="url(#pd18ee3eb46)" d="M 903.272727 594.6624 
L 907.168582 594.6624 
L 907.168582 594.6624 
L 903.272727 594.6624 
z
" style="fill:#4682b4;stroke:#000000;stroke-linejoin:miter;"/>
   </g>
   <g id="patch_179">
    <path clip-path="url(#pd18ee3eb46)" d="M 907.168582 594.6624 
L 911.064436 594.6624 
L 911.064436 594.6624 
L 907.168582 594.6624 
z
" style="fill:#4682b4;stroke:#000000;stroke-linejoin:miter;"/>
   </g>
   <g id="patch_180">
    <path clip-path="url(#pd18ee3eb46)" d="M 911.064436 594.6624 
L 914.960291 594.6624 
L 914.960291 594.6624 
L 911.064436 594.6624 
z
" style="fill:#4682b4;stroke:#000000;stroke-linejoin:miter;"/>
   </g>
   <g id="patch_181">
    <path clip-path="url(#pd18ee3eb46)" d="M 914.960291 594.6624 
L 918.856145 594.6624 
L 918.856145 594.6624 
L 914.960291 594.6624 
z
" style="fill:#4682b4;stroke:#000000;stroke-linejoin:miter;"/>
   </g>
   <g id="patch_182">
    <path clip-path="url(#pd18ee3eb46)" d="M 918.856145 594.6624 
L 922.752 594.6624 
L 922.752 594.6624 
L 918.856145 594.6624 
z
" style="fill:#4682b4;stroke:#000000;stroke-linejoin:miter;"/>
   </g>
   <g id="patch_183">
    <path clip-path="url(#pd18ee3eb46)" d="M 922.752 594.6624 
L 926.647855 594.6624 
L 926.647855 594.6624 
L 922.752 594.6624 
z
" style="fill:#4682b4;stroke:#000000;stroke-linejoin:miter;"/>
   </g>
   <g id="patch_184">
    <path clip-path="url(#pd18ee3eb46)" d="M 926.647855 594.6624 
L 930.543709 594.6624 
L 930.543709 594.6624 
L 926.647855 594.6624 
z
" style="fill:#4682b4;stroke:#000000;stroke-linejoin:miter;"/>
   </g>
   <g id="patch_185">
    <path clip-path="url(#pd18ee3eb46)" d="M 930.543709 594.6624 
L 934.439564 594.6624 
L 934.439564 576.172438 
L 930.543709 576.172438 
z
" style="fill:#4682b4;stroke:#000000;stroke-linejoin:miter;"/>
   </g>
   <g id="patch_186">
    <path clip-path="url(#pd18ee3eb46)" d="M 934.439564 594.6624 
L 938.335418 594.6624 
L 938.335418 594.6624 
L 934.439564 594.6624 
z
" style="fill:#4682b4;stroke:#000000;stroke-linejoin:miter;"/>
   </g>
   <g id="patch_187">
    <path clip-path="url(#pd18ee3eb46)" d="M 938.335418 594.6624 
L 942.231273 594.6624 
L 942.231273 576.172438 
L 938.335418 576.172438 
z
" style="fill:#4682b4;stroke:#000000;stroke-linejoin:miter;"/>
   </g>
   <g id="patch_188">
    <path clip-path="url(#pd18ee3eb46)" d="M 942.231273 594.6624 
L 946.127127 594.6624 
L 946.127127 594.6624 
L 942.231273 594.6624 
z
" style="fill:#4682b4;stroke:#000000;stroke-linejoin:miter;"/>
   </g>
   <g id="patch_189">
    <path clip-path="url(#pd18ee3eb46)" d="M 946.127127 594.6624 
L 950.022982 594.6624 
L 950.022982 594.6624 
L 946.127127 594.6624 
z
" style="fill:#4682b4;stroke:#000000;stroke-linejoin:miter;"/>
   </g>
   <g id="patch_190">
    <path clip-path="url(#pd18ee3eb46)" d="M 950.022982 594.6624 
L 953.918836 594.6624 
L 953.918836 594.6624 
L 950.022982 594.6624 
z
" style="fill:#4682b4;stroke:#000000;stroke-linejoin:miter;"/>
   </g>
   <g id="patch_191">
    <path clip-path="url(#pd18ee3eb46)" d="M 953.918836 594.6624 
L 957.814691 594.6624 
L 957.814691 585.417419 
L 953.918836 585.417419 
z
" style="fill:#4682b4;stroke:#000000;stroke-linejoin:miter;"/>
   </g>
   <g id="patch_192">
    <path clip-path="url(#pd18ee3eb46)" d="M 957.814691 594.6624 
L 961.710545 594.6624 
L 961.710545 594.6624 
L 957.814691 594.6624 
z
" style="fill:#4682b4;stroke:#000000;stroke-linejoin:miter;"/>
   </g>
   <g id="patch_193">
    <path clip-path="url(#pd18ee3eb46)" d="M 961.710545 594.6624 
L 965.6064 594.6624 
L 965.6064 594.6624 
L 961.710545 594.6624 
z
" style="fill:#4682b4;stroke:#000000;stroke-linejoin:miter;"/>
   </g>
   <g id="patch_194">
    <path clip-path="url(#pd18ee3eb46)" d="M 965.6064 594.6624 
L 969.502255 594.6624 
L 969.502255 594.6624 
L 965.6064 594.6624 
z
" style="fill:#4682b4;stroke:#000000;stroke-linejoin:miter;"/>
   </g>
   <g id="patch_195">
    <path clip-path="url(#pd18ee3eb46)" d="M 969.502255 594.6624 
L 973.398109 594.6624 
L 973.398109 594.6624 
L 969.502255 594.6624 
z
" style="fill:#4682b4;stroke:#000000;stroke-linejoin:miter;"/>
   </g>
   <g id="patch_196">
    <path clip-path="url(#pd18ee3eb46)" d="M 973.398109 594.6624 
L 977.293964 594.6624 
L 977.293964 594.6624 
L 973.398109 594.6624 
z
" style="fill:#4682b4;stroke:#000000;stroke-linejoin:miter;"/>
   </g>
   <g id="patch_197">
    <path clip-path="url(#pd18ee3eb46)" d="M 977.293964 594.6624 
L 981.189818 594.6624 
L 981.189818 594.6624 
L 977.293964 594.6624 
z
" style="fill:#4682b4;stroke:#000000;stroke-linejoin:miter;"/>
   </g>
   <g id="patch_198">
    <path clip-path="url(#pd18ee3eb46)" d="M 981.189818 594.6624 
L 985.085673 594.6624 
L 985.085673 594.6624 
L 981.189818 594.6624 
z
" style="fill:#4682b4;stroke:#000000;stroke-linejoin:miter;"/>
   </g>
   <g id="patch_199">
    <path clip-path="url(#pd18ee3eb46)" d="M 985.085673 594.6624 
L 988.981527 594.6624 
L 988.981527 594.6624 
L 985.085673 594.6624 
z
" style="fill:#4682b4;stroke:#000000;stroke-linejoin:miter;"/>
   </g>
   <g id="patch_200">
    <path clip-path="url(#pd18ee3eb46)" d="M 988.981527 594.6624 
L 992.877382 594.6624 
L 992.877382 594.6624 
L 988.981527 594.6624 
z
" style="fill:#4682b4;stroke:#000000;stroke-linejoin:miter;"/>
   </g>
   <g id="patch_201">
    <path clip-path="url(#pd18ee3eb46)" d="M 992.877382 594.6624 
L 996.773236 594.6624 
L 996.773236 594.6624 
L 992.877382 594.6624 
z
" style="fill:#4682b4;stroke:#000000;stroke-linejoin:miter;"/>
   </g>
   <g id="patch_202">
    <path clip-path="url(#pd18ee3eb46)" d="M 996.773236 594.6624 
L 1000.669091 594.6624 
L 1000.669091 594.6624 
L 996.773236 594.6624 
z
" style="fill:#4682b4;stroke:#000000;stroke-linejoin:miter;"/>
   </g>
   <g id="patch_203">
    <path clip-path="url(#pd18ee3eb46)" d="M 1000.669091 594.6624 
L 1004.564945 594.6624 
L 1004.564945 594.6624 
L 1000.669091 594.6624 
z
" style="fill:#4682b4;stroke:#000000;stroke-linejoin:miter;"/>
   </g>
   <g id="patch_204">
    <path clip-path="url(#pd18ee3eb46)" d="M 1004.564945 594.6624 
L 1008.4608 594.6624 
L 1008.4608 594.6624 
L 1004.564945 594.6624 
z
" style="fill:#4682b4;stroke:#000000;stroke-linejoin:miter;"/>
   </g>
   <g id="patch_205">
    <path clip-path="url(#pd18ee3eb46)" d="M 1008.4608 594.6624 
L 1012.356655 594.6624 
L 1012.356655 576.172438 
L 1008.4608 576.172438 
z
" style="fill:#4682b4;stroke:#000000;stroke-linejoin:miter;"/>
   </g>
   <g id="patch_206">
    <path clip-path="url(#pd18ee3eb46)" d="M 1012.356655 594.6624 
L 1016.252509 594.6624 
L 1016.252509 594.6624 
L 1012.356655 594.6624 
z
" style="fill:#4682b4;stroke:#000000;stroke-linejoin:miter;"/>
   </g>
   <g id="patch_207">
    <path clip-path="url(#pd18ee3eb46)" d="M 1016.252509 594.6624 
L 1020.148364 594.6624 
L 1020.148364 594.6624 
L 1016.252509 594.6624 
z
" style="fill:#4682b4;stroke:#000000;stroke-linejoin:miter;"/>
   </g>
   <g id="patch_208">
    <path clip-path="url(#pd18ee3eb46)" d="M 1020.148364 594.6624 
L 1024.044218 594.6624 
L 1024.044218 594.6624 
L 1020.148364 594.6624 
z
" style="fill:#4682b4;stroke:#000000;stroke-linejoin:miter;"/>
   </g>
   <g id="patch_209">
    <path clip-path="url(#pd18ee3eb46)" d="M 1024.044218 594.6624 
L 1027.940073 594.6624 
L 1027.940073 594.6624 
L 1024.044218 594.6624 
z
" style="fill:#4682b4;stroke:#000000;stroke-linejoin:miter;"/>
   </g>
   <g id="patch_210">
    <path clip-path="url(#pd18ee3eb46)" d="M 1027.940073 594.6624 
L 1031.835927 594.6624 
L 1031.835927 594.6624 
L 1027.940073 594.6624 
z
" style="fill:#4682b4;stroke:#000000;stroke-linejoin:miter;"/>
   </g>
   <g id="patch_211">
    <path clip-path="url(#pd18ee3eb46)" d="M 1031.835927 594.6624 
L 1035.731782 594.6624 
L 1035.731782 594.6624 
L 1031.835927 594.6624 
z
" style="fill:#4682b4;stroke:#000000;stroke-linejoin:miter;"/>
   </g>
   <g id="patch_212">
    <path clip-path="url(#pd18ee3eb46)" d="M 1035.731782 594.6624 
L 1039.627636 594.6624 
L 1039.627636 594.6624 
L 1035.731782 594.6624 
z
" style="fill:#4682b4;stroke:#000000;stroke-linejoin:miter;"/>
   </g>
   <g id="patch_213">
    <path clip-path="url(#pd18ee3eb46)" d="M 1039.627636 594.6624 
L 1043.523491 594.6624 
L 1043.523491 594.6624 
L 1039.627636 594.6624 
z
" style="fill:#4682b4;stroke:#000000;stroke-linejoin:miter;"/>
   </g>
   <g id="patch_214">
    <path clip-path="url(#pd18ee3eb46)" d="M 1043.523491 594.6624 
L 1047.419345 594.6624 
L 1047.419345 594.6624 
L 1043.523491 594.6624 
z
" style="fill:#4682b4;stroke:#000000;stroke-linejoin:miter;"/>
   </g>
   <g id="patch_215">
    <path clip-path="url(#pd18ee3eb46)" d="M 1047.419345 594.6624 
L 1051.3152 594.6624 
L 1051.3152 594.6624 
L 1047.419345 594.6624 
z
" style="fill:#4682b4;stroke:#000000;stroke-linejoin:miter;"/>
   </g>
   <g id="patch_216">
    <path clip-path="url(#pd18ee3eb46)" d="M 1051.3152 594.6624 
L 1055.211055 594.6624 
L 1055.211055 594.6624 
L 1051.3152 594.6624 
z
" style="fill:#4682b4;stroke:#000000;stroke-linejoin:miter;"/>
   </g>
   <g id="patch_217">
    <path clip-path="url(#pd18ee3eb46)" d="M 1055.211055 594.6624 
L 1059.106909 594.6624 
L 1059.106909 594.6624 
L 1055.211055 594.6624 
z
" style="fill:#4682b4;stroke:#000000;stroke-linejoin:miter;"/>
   </g>
   <g id="patch_218">
    <path clip-path="url(#pd18ee3eb46)" d="M 1059.106909 594.6624 
L 1063.002764 594.6624 
L 1063.002764 594.6624 
L 1059.106909 594.6624 
z
" style="fill:#4682b4;stroke:#000000;stroke-linejoin:miter;"/>
   </g>
   <g id="patch_219">
    <path clip-path="url(#pd18ee3eb46)" d="M 1063.002764 594.6624 
L 1066.898618 594.6624 
L 1066.898618 585.417419 
L 1063.002764 585.417419 
z
" style="fill:#4682b4;stroke:#000000;stroke-linejoin:miter;"/>
   </g>
   <g id="patch_220">
    <path clip-path="url(#pd18ee3eb46)" d="M 1066.898618 594.6624 
L 1070.794473 594.6624 
L 1070.794473 594.6624 
L 1066.898618 594.6624 
z
" style="fill:#4682b4;stroke:#000000;stroke-linejoin:miter;"/>
   </g>
   <g id="patch_221">
    <path clip-path="url(#pd18ee3eb46)" d="M 1070.794473 594.6624 
L 1074.690327 594.6624 
L 1074.690327 594.6624 
L 1070.794473 594.6624 
z
" style="fill:#4682b4;stroke:#000000;stroke-linejoin:miter;"/>
   </g>
   <g id="patch_222">
    <path clip-path="url(#pd18ee3eb46)" d="M 1074.690327 594.6624 
L 1078.586182 594.6624 
L 1078.586182 594.6624 
L 1074.690327 594.6624 
z
" style="fill:#4682b4;stroke:#000000;stroke-linejoin:miter;"/>
   </g>
   <g id="patch_223">
    <path clip-path="url(#pd18ee3eb46)" d="M 1078.586182 594.6624 
L 1082.482036 594.6624 
L 1082.482036 594.6624 
L 1078.586182 594.6624 
z
" style="fill:#4682b4;stroke:#000000;stroke-linejoin:miter;"/>
   </g>
   <g id="patch_224">
    <path clip-path="url(#pd18ee3eb46)" d="M 1082.482036 594.6624 
L 1086.377891 594.6624 
L 1086.377891 594.6624 
L 1082.482036 594.6624 
z
" style="fill:#4682b4;stroke:#000000;stroke-linejoin:miter;"/>
   </g>
   <g id="patch_225">
    <path clip-path="url(#pd18ee3eb46)" d="M 1086.377891 594.6624 
L 1090.273745 594.6624 
L 1090.273745 594.6624 
L 1086.377891 594.6624 
z
" style="fill:#4682b4;stroke:#000000;stroke-linejoin:miter;"/>
   </g>
   <g id="patch_226">
    <path clip-path="url(#pd18ee3eb46)" d="M 1090.273745 594.6624 
L 1094.1696 594.6624 
L 1094.1696 594.6624 
L 1090.273745 594.6624 
z
" style="fill:#4682b4;stroke:#000000;stroke-linejoin:miter;"/>
   </g>
   <g id="patch_227">
    <path clip-path="url(#pd18ee3eb46)" d="M 1094.1696 594.6624 
L 1098.065455 594.6624 
L 1098.065455 594.6624 
L 1094.1696 594.6624 
z
" style="fill:#4682b4;stroke:#000000;stroke-linejoin:miter;"/>
   </g>
   <g id="patch_228">
    <path clip-path="url(#pd18ee3eb46)" d="M 1098.065455 594.6624 
L 1101.961309 594.6624 
L 1101.961309 594.6624 
L 1098.065455 594.6624 
z
" style="fill:#4682b4;stroke:#000000;stroke-linejoin:miter;"/>
   </g>
   <g id="patch_229">
    <path clip-path="url(#pd18ee3eb46)" d="M 1101.961309 594.6624 
L 1105.857164 594.6624 
L 1105.857164 594.6624 
L 1101.961309 594.6624 
z
" style="fill:#4682b4;stroke:#000000;stroke-linejoin:miter;"/>
   </g>
   <g id="patch_230">
    <path clip-path="url(#pd18ee3eb46)" d="M 1105.857164 594.6624 
L 1109.753018 594.6624 
L 1109.753018 594.6624 
L 1105.857164 594.6624 
z
" style="fill:#4682b4;stroke:#000000;stroke-linejoin:miter;"/>
   </g>
   <g id="patch_231">
    <path clip-path="url(#pd18ee3eb46)" d="M 1109.753018 594.6624 
L 1113.648873 594.6624 
L 1113.648873 594.6624 
L 1109.753018 594.6624 
z
" style="fill:#4682b4;stroke:#000000;stroke-linejoin:miter;"/>
   </g>
   <g id="patch_232">
    <path clip-path="url(#pd18ee3eb46)" d="M 1113.648873 594.6624 
L 1117.544727 594.6624 
L 1117.544727 594.6624 
L 1113.648873 594.6624 
z
" style="fill:#4682b4;stroke:#000000;stroke-linejoin:miter;"/>
   </g>
   <g id="patch_233">
    <path clip-path="url(#pd18ee3eb46)" d="M 1117.544727 594.6624 
L 1121.440582 594.6624 
L 1121.440582 594.6624 
L 1117.544727 594.6624 
z
" style="fill:#4682b4;stroke:#000000;stroke-linejoin:miter;"/>
   </g>
   <g id="patch_234">
    <path clip-path="url(#pd18ee3eb46)" d="M 1121.440582 594.6624 
L 1125.336436 594.6624 
L 1125.336436 585.417419 
L 1121.440582 585.417419 
z
" style="fill:#4682b4;stroke:#000000;stroke-linejoin:miter;"/>
   </g>
   <g id="patch_235">
    <path clip-path="url(#pd18ee3eb46)" d="M 1125.336436 594.6624 
L 1129.232291 594.6624 
L 1129.232291 594.6624 
L 1125.336436 594.6624 
z
" style="fill:#4682b4;stroke:#000000;stroke-linejoin:miter;"/>
   </g>
   <g id="patch_236">
    <path clip-path="url(#pd18ee3eb46)" d="M 1129.232291 594.6624 
L 1133.128145 594.6624 
L 1133.128145 594.6624 
L 1129.232291 594.6624 
z
" style="fill:#4682b4;stroke:#000000;stroke-linejoin:miter;"/>
   </g>
   <g id="patch_237">
    <path clip-path="url(#pd18ee3eb46)" d="M 1133.128145 594.6624 
L 1137.024 594.6624 
L 1137.024 594.6624 
L 1133.128145 594.6624 
z
" style="fill:#4682b4;stroke:#000000;stroke-linejoin:miter;"/>
   </g>
   <g id="patch_238">
    <path clip-path="url(#pd18ee3eb46)" d="M 1137.024 594.6624 
L 1140.919855 594.6624 
L 1140.919855 594.6624 
L 1137.024 594.6624 
z
" style="fill:#4682b4;stroke:#000000;stroke-linejoin:miter;"/>
   </g>
   <g id="patch_239">
    <path clip-path="url(#pd18ee3eb46)" d="M 1140.919855 594.6624 
L 1144.815709 594.6624 
L 1144.815709 594.6624 
L 1140.919855 594.6624 
z
" style="fill:#4682b4;stroke:#000000;stroke-linejoin:miter;"/>
   </g>
   <g id="patch_240">
    <path clip-path="url(#pd18ee3eb46)" d="M 1144.815709 594.6624 
L 1148.711564 594.6624 
L 1148.711564 594.6624 
L 1144.815709 594.6624 
z
" style="fill:#4682b4;stroke:#000000;stroke-linejoin:miter;"/>
   </g>
   <g id="patch_241">
    <path clip-path="url(#pd18ee3eb46)" d="M 1148.711564 594.6624 
L 1152.607418 594.6624 
L 1152.607418 594.6624 
L 1148.711564 594.6624 
z
" style="fill:#4682b4;stroke:#000000;stroke-linejoin:miter;"/>
   </g>
   <g id="patch_242">
    <path clip-path="url(#pd18ee3eb46)" d="M 1152.607418 594.6624 
L 1156.503273 594.6624 
L 1156.503273 594.6624 
L 1152.607418 594.6624 
z
" style="fill:#4682b4;stroke:#000000;stroke-linejoin:miter;"/>
   </g>
   <g id="patch_243">
    <path clip-path="url(#pd18ee3eb46)" d="M 1156.503273 594.6624 
L 1160.399127 594.6624 
L 1160.399127 594.6624 
L 1156.503273 594.6624 
z
" style="fill:#4682b4;stroke:#000000;stroke-linejoin:miter;"/>
   </g>
   <g id="patch_244">
    <path clip-path="url(#pd18ee3eb46)" d="M 1160.399127 594.6624 
L 1164.294982 594.6624 
L 1164.294982 594.6624 
L 1160.399127 594.6624 
z
" style="fill:#4682b4;stroke:#000000;stroke-linejoin:miter;"/>
   </g>
   <g id="patch_245">
    <path clip-path="url(#pd18ee3eb46)" d="M 1164.294982 594.6624 
L 1168.190836 594.6624 
L 1168.190836 594.6624 
L 1164.294982 594.6624 
z
" style="fill:#4682b4;stroke:#000000;stroke-linejoin:miter;"/>
   </g>
   <g id="patch_246">
    <path clip-path="url(#pd18ee3eb46)" d="M 1168.190836 594.6624 
L 1172.086691 594.6624 
L 1172.086691 594.6624 
L 1168.190836 594.6624 
z
" style="fill:#4682b4;stroke:#000000;stroke-linejoin:miter;"/>
   </g>
   <g id="patch_247">
    <path clip-path="url(#pd18ee3eb46)" d="M 1172.086691 594.6624 
L 1175.982545 594.6624 
L 1175.982545 594.6624 
L 1172.086691 594.6624 
z
" style="fill:#4682b4;stroke:#000000;stroke-linejoin:miter;"/>
   </g>
   <g id="patch_248">
    <path clip-path="url(#pd18ee3eb46)" d="M 1175.982545 594.6624 
L 1179.8784 594.6624 
L 1179.8784 594.6624 
L 1175.982545 594.6624 
z
" style="fill:#4682b4;stroke:#000000;stroke-linejoin:miter;"/>
   </g>
   <g id="patch_249">
    <path clip-path="url(#pd18ee3eb46)" d="M 1179.8784 594.6624 
L 1183.774255 594.6624 
L 1183.774255 594.6624 
L 1179.8784 594.6624 
z
" style="fill:#4682b4;stroke:#000000;stroke-linejoin:miter;"/>
   </g>
   <g id="patch_250">
    <path clip-path="url(#pd18ee3eb46)" d="M 1183.774255 594.6624 
L 1187.670109 594.6624 
L 1187.670109 594.6624 
L 1183.774255 594.6624 
z
" style="fill:#4682b4;stroke:#000000;stroke-linejoin:miter;"/>
   </g>
   <g id="patch_251">
    <path clip-path="url(#pd18ee3eb46)" d="M 1187.670109 594.6624 
L 1191.565964 594.6624 
L 1191.565964 594.6624 
L 1187.670109 594.6624 
z
" style="fill:#4682b4;stroke:#000000;stroke-linejoin:miter;"/>
   </g>
   <g id="patch_252">
    <path clip-path="url(#pd18ee3eb46)" d="M 1191.565964 594.6624 
L 1195.461818 594.6624 
L 1195.461818 585.417419 
L 1191.565964 585.417419 
z
" style="fill:#4682b4;stroke:#000000;stroke-linejoin:miter;"/>
   </g>
   <g id="matplotlib.axis_1">
    <g id="xtick_1">
     <g id="line2d_1">
      <defs>
       <path d="M 0 0 
L 0 3.5 
" id="m4279cf0e0c" style="stroke:#000000;stroke-width:0.8;"/>
      </defs>
      <g>
       <use style="stroke:#000000;stroke-width:0.8;" x="268.698639" xlink:href="#m4279cf0e0c" y="594.6624"/>
      </g>
     </g>
     <g id="text_1">
      <!-- 0.0 -->
      <defs>
       <path d="M 31.78125 66.40625 
Q 24.171875 66.40625 20.328125 58.90625 
Q 16.5 51.421875 16.5 36.375 
Q 16.5 21.390625 20.328125 13.890625 
Q 24.171875 6.390625 31.78125 6.390625 
Q 39.453125 6.390625 43.28125 13.890625 
Q 47.125 21.390625 47.125 36.375 
Q 47.125 51.421875 43.28125 58.90625 
Q 39.453125 66.40625 31.78125 66.40625 
z
M 31.78125 74.21875 
Q 44.046875 74.21875 50.515625 64.515625 
Q 56.984375 54.828125 56.984375 36.375 
Q 56.984375 17.96875 50.515625 8.265625 
Q 44.046875 -1.421875 31.78125 -1.421875 
Q 19.53125 -1.421875 13.0625 8.265625 
Q 6.59375 17.96875 6.59375 36.375 
Q 6.59375 54.828125 13.0625 64.515625 
Q 19.53125 74.21875 31.78125 74.21875 
z
" id="DejaVuSans-48"/>
       <path d="M 10.6875 12.40625 
L 21 12.40625 
L 21 0 
L 10.6875 0 
z
" id="DejaVuSans-46"/>
      </defs>
      <g transform="translate(260.747077 609.260837)scale(0.1 -0.1)">
       <use xlink:href="#DejaVuSans-48"/>
       <use x="63.623047" xlink:href="#DejaVuSans-46"/>
       <use x="95.410156" xlink:href="#DejaVuSans-48"/>
      </g>
     </g>
    </g>
    <g id="xtick_2">
     <g id="line2d_2">
      <g>
       <use style="stroke:#000000;stroke-width:0.8;" x="417.134514" xlink:href="#m4279cf0e0c" y="594.6624"/>
      </g>
     </g>
     <g id="text_2">
      <!-- 0.1 -->
      <defs>
       <path d="M 12.40625 8.296875 
L 28.515625 8.296875 
L 28.515625 63.921875 
L 10.984375 60.40625 
L 10.984375 69.390625 
L 28.421875 72.90625 
L 38.28125 72.90625 
L 38.28125 8.296875 
L 54.390625 8.296875 
L 54.390625 0 
L 12.40625 0 
z
" id="DejaVuSans-49"/>
      </defs>
      <g transform="translate(409.182951 609.260837)scale(0.1 -0.1)">
       <use xlink:href="#DejaVuSans-48"/>
       <use x="63.623047" xlink:href="#DejaVuSans-46"/>
       <use x="95.410156" xlink:href="#DejaVuSans-49"/>
      </g>
     </g>
    </g>
    <g id="xtick_3">
     <g id="line2d_3">
      <g>
       <use style="stroke:#000000;stroke-width:0.8;" x="565.570388" xlink:href="#m4279cf0e0c" y="594.6624"/>
      </g>
     </g>
     <g id="text_3">
      <!-- 0.2 -->
      <defs>
       <path d="M 19.1875 8.296875 
L 53.609375 8.296875 
L 53.609375 0 
L 7.328125 0 
L 7.328125 8.296875 
Q 12.9375 14.109375 22.625 23.890625 
Q 32.328125 33.6875 34.8125 36.53125 
Q 39.546875 41.84375 41.421875 45.53125 
Q 43.3125 49.21875 43.3125 52.78125 
Q 43.3125 58.59375 39.234375 62.25 
Q 35.15625 65.921875 28.609375 65.921875 
Q 23.96875 65.921875 18.8125 64.3125 
Q 13.671875 62.703125 7.8125 59.421875 
L 7.8125 69.390625 
Q 13.765625 71.78125 18.9375 73 
Q 24.125 74.21875 28.421875 74.21875 
Q 39.75 74.21875 46.484375 68.546875 
Q 53.21875 62.890625 53.21875 53.421875 
Q 53.21875 48.921875 51.53125 44.890625 
Q 49.859375 40.875 45.40625 35.40625 
Q 44.1875 33.984375 37.640625 27.21875 
Q 31.109375 20.453125 19.1875 8.296875 
z
" id="DejaVuSans-50"/>
      </defs>
      <g transform="translate(557.618826 609.260837)scale(0.1 -0.1)">
       <use xlink:href="#DejaVuSans-48"/>
       <use x="63.623047" xlink:href="#DejaVuSans-46"/>
       <use x="95.410156" xlink:href="#DejaVuSans-50"/>
      </g>
     </g>
    </g>
    <g id="xtick_4">
     <g id="line2d_4">
      <g>
       <use style="stroke:#000000;stroke-width:0.8;" x="714.006263" xlink:href="#m4279cf0e0c" y="594.6624"/>
      </g>
     </g>
     <g id="text_4">
      <!-- 0.3 -->
      <defs>
       <path d="M 40.578125 39.3125 
Q 47.65625 37.796875 51.625 33 
Q 55.609375 28.21875 55.609375 21.1875 
Q 55.609375 10.40625 48.1875 4.484375 
Q 40.765625 -1.421875 27.09375 -1.421875 
Q 22.515625 -1.421875 17.65625 -0.515625 
Q 12.796875 0.390625 7.625 2.203125 
L 7.625 11.71875 
Q 11.71875 9.328125 16.59375 8.109375 
Q 21.484375 6.890625 26.8125 6.890625 
Q 36.078125 6.890625 40.9375 10.546875 
Q 45.796875 14.203125 45.796875 21.1875 
Q 45.796875 27.640625 41.28125 31.265625 
Q 36.765625 34.90625 28.71875 34.90625 
L 20.21875 34.90625 
L 20.21875 43.015625 
L 29.109375 43.015625 
Q 36.375 43.015625 40.234375 45.921875 
Q 44.09375 48.828125 44.09375 54.296875 
Q 44.09375 59.90625 40.109375 62.90625 
Q 36.140625 65.921875 28.71875 65.921875 
Q 24.65625 65.921875 20.015625 65.03125 
Q 15.375 64.15625 9.8125 62.3125 
L 9.8125 71.09375 
Q 15.4375 72.65625 20.34375 73.4375 
Q 25.25 74.21875 29.59375 74.21875 
Q 40.828125 74.21875 47.359375 69.109375 
Q 53.90625 64.015625 53.90625 55.328125 
Q 53.90625 49.265625 50.4375 45.09375 
Q 46.96875 40.921875 40.578125 39.3125 
z
" id="DejaVuSans-51"/>
      </defs>
      <g transform="translate(706.0547 609.260837)scale(0.1 -0.1)">
       <use xlink:href="#DejaVuSans-48"/>
       <use x="63.623047" xlink:href="#DejaVuSans-46"/>
       <use x="95.410156" xlink:href="#DejaVuSans-51"/>
      </g>
     </g>
    </g>
    <g id="xtick_5">
     <g id="line2d_5">
      <g>
       <use style="stroke:#000000;stroke-width:0.8;" x="862.442137" xlink:href="#m4279cf0e0c" y="594.6624"/>
      </g>
     </g>
     <g id="text_5">
      <!-- 0.4 -->
      <defs>
       <path d="M 37.796875 64.3125 
L 12.890625 25.390625 
L 37.796875 25.390625 
z
M 35.203125 72.90625 
L 47.609375 72.90625 
L 47.609375 25.390625 
L 58.015625 25.390625 
L 58.015625 17.1875 
L 47.609375 17.1875 
L 47.609375 0 
L 37.796875 0 
L 37.796875 17.1875 
L 4.890625 17.1875 
L 4.890625 26.703125 
z
" id="DejaVuSans-52"/>
      </defs>
      <g transform="translate(854.490575 609.260837)scale(0.1 -0.1)">
       <use xlink:href="#DejaVuSans-48"/>
       <use x="63.623047" xlink:href="#DejaVuSans-46"/>
       <use x="95.410156" xlink:href="#DejaVuSans-52"/>
      </g>
     </g>
    </g>
    <g id="xtick_6">
     <g id="line2d_6">
      <g>
       <use style="stroke:#000000;stroke-width:0.8;" x="1010.878012" xlink:href="#m4279cf0e0c" y="594.6624"/>
      </g>
     </g>
     <g id="text_6">
      <!-- 0.5 -->
      <defs>
       <path d="M 10.796875 72.90625 
L 49.515625 72.90625 
L 49.515625 64.59375 
L 19.828125 64.59375 
L 19.828125 46.734375 
Q 21.96875 47.46875 24.109375 47.828125 
Q 26.265625 48.1875 28.421875 48.1875 
Q 40.625 48.1875 47.75 41.5 
Q 54.890625 34.8125 54.890625 23.390625 
Q 54.890625 11.625 47.5625 5.09375 
Q 40.234375 -1.421875 26.90625 -1.421875 
Q 22.3125 -1.421875 17.546875 -0.640625 
Q 12.796875 0.140625 7.71875 1.703125 
L 7.71875 11.625 
Q 12.109375 9.234375 16.796875 8.0625 
Q 21.484375 6.890625 26.703125 6.890625 
Q 35.15625 6.890625 40.078125 11.328125 
Q 45.015625 15.765625 45.015625 23.390625 
Q 45.015625 31 40.078125 35.4375 
Q 35.15625 39.890625 26.703125 39.890625 
Q 22.75 39.890625 18.8125 39.015625 
Q 14.890625 38.140625 10.796875 36.28125 
z
" id="DejaVuSans-53"/>
      </defs>
      <g transform="translate(1002.926449 609.260837)scale(0.1 -0.1)">
       <use xlink:href="#DejaVuSans-48"/>
       <use x="63.623047" xlink:href="#DejaVuSans-46"/>
       <use x="95.410156" xlink:href="#DejaVuSans-53"/>
      </g>
     </g>
    </g>
    <g id="xtick_7">
     <g id="line2d_7">
      <g>
       <use style="stroke:#000000;stroke-width:0.8;" x="1159.313886" xlink:href="#m4279cf0e0c" y="594.6624"/>
      </g>
     </g>
     <g id="text_7">
      <!-- 0.6 -->
      <defs>
       <path d="M 33.015625 40.375 
Q 26.375 40.375 22.484375 35.828125 
Q 18.609375 31.296875 18.609375 23.390625 
Q 18.609375 15.53125 22.484375 10.953125 
Q 26.375 6.390625 33.015625 6.390625 
Q 39.65625 6.390625 43.53125 10.953125 
Q 47.40625 15.53125 47.40625 23.390625 
Q 47.40625 31.296875 43.53125 35.828125 
Q 39.65625 40.375 33.015625 40.375 
z
M 52.59375 71.296875 
L 52.59375 62.3125 
Q 48.875 64.0625 45.09375 64.984375 
Q 41.3125 65.921875 37.59375 65.921875 
Q 27.828125 65.921875 22.671875 59.328125 
Q 17.53125 52.734375 16.796875 39.40625 
Q 19.671875 43.65625 24.015625 45.921875 
Q 28.375 48.1875 33.59375 48.1875 
Q 44.578125 48.1875 50.953125 41.515625 
Q 57.328125 34.859375 57.328125 23.390625 
Q 57.328125 12.15625 50.6875 5.359375 
Q 44.046875 -1.421875 33.015625 -1.421875 
Q 20.359375 -1.421875 13.671875 8.265625 
Q 6.984375 17.96875 6.984375 36.375 
Q 6.984375 53.65625 15.1875 63.9375 
Q 23.390625 74.21875 37.203125 74.21875 
Q 40.921875 74.21875 44.703125 73.484375 
Q 48.484375 72.75 52.59375 71.296875 
z
" id="DejaVuSans-54"/>
      </defs>
      <g transform="translate(1151.362324 609.260837)scale(0.1 -0.1)">
       <use xlink:href="#DejaVuSans-48"/>
       <use x="63.623047" xlink:href="#DejaVuSans-46"/>
       <use x="95.410156" xlink:href="#DejaVuSans-54"/>
      </g>
     </g>
    </g>
    <g id="text_8">
     <!-- Area -->
     <defs>
      <path d="M 34.1875 63.1875 
L 20.796875 26.90625 
L 47.609375 26.90625 
z
M 28.609375 72.90625 
L 39.796875 72.90625 
L 67.578125 0 
L 57.328125 0 
L 50.6875 18.703125 
L 17.828125 18.703125 
L 11.1875 0 
L 0.78125 0 
z
" id="DejaVuSans-65"/>
      <path d="M 41.109375 46.296875 
Q 39.59375 47.171875 37.8125 47.578125 
Q 36.03125 48 33.890625 48 
Q 26.265625 48 22.1875 43.046875 
Q 18.109375 38.09375 18.109375 28.8125 
L 18.109375 0 
L 9.078125 0 
L 9.078125 54.6875 
L 18.109375 54.6875 
L 18.109375 46.1875 
Q 20.953125 51.171875 25.484375 53.578125 
Q 30.03125 56 36.53125 56 
Q 37.453125 56 38.578125 55.875 
Q 39.703125 55.765625 41.0625 55.515625 
z
" id="DejaVuSans-114"/>
      <path d="M 56.203125 29.59375 
L 56.203125 25.203125 
L 14.890625 25.203125 
Q 15.484375 15.921875 20.484375 11.0625 
Q 25.484375 6.203125 34.421875 6.203125 
Q 39.59375 6.203125 44.453125 7.46875 
Q 49.3125 8.734375 54.109375 11.28125 
L 54.109375 2.78125 
Q 49.265625 0.734375 44.1875 -0.34375 
Q 39.109375 -1.421875 33.890625 -1.421875 
Q 20.796875 -1.421875 13.15625 6.1875 
Q 5.515625 13.8125 5.515625 26.8125 
Q 5.515625 40.234375 12.765625 48.109375 
Q 20.015625 56 32.328125 56 
Q 43.359375 56 49.78125 48.890625 
Q 56.203125 41.796875 56.203125 29.59375 
z
M 47.21875 32.234375 
Q 47.125 39.59375 43.09375 43.984375 
Q 39.0625 48.390625 32.421875 48.390625 
Q 24.90625 48.390625 20.390625 44.140625 
Q 15.875 39.890625 15.1875 32.171875 
z
" id="DejaVuSans-101"/>
      <path d="M 34.28125 27.484375 
Q 23.390625 27.484375 19.1875 25 
Q 14.984375 22.515625 14.984375 16.5 
Q 14.984375 11.71875 18.140625 8.90625 
Q 21.296875 6.109375 26.703125 6.109375 
Q 34.1875 6.109375 38.703125 11.40625 
Q 43.21875 16.703125 43.21875 25.484375 
L 43.21875 27.484375 
z
M 52.203125 31.203125 
L 52.203125 0 
L 43.21875 0 
L 43.21875 8.296875 
Q 40.140625 3.328125 35.546875 0.953125 
Q 30.953125 -1.421875 24.3125 -1.421875 
Q 15.921875 -1.421875 10.953125 3.296875 
Q 6 8.015625 6 15.921875 
Q 6 25.140625 12.171875 29.828125 
Q 18.359375 34.515625 30.609375 34.515625 
L 43.21875 34.515625 
L 43.21875 35.40625 
Q 43.21875 41.609375 39.140625 45 
Q 35.0625 48.390625 27.6875 48.390625 
Q 23 48.390625 18.546875 47.265625 
Q 14.109375 46.140625 10.015625 43.890625 
L 10.015625 52.203125 
Q 14.9375 54.109375 19.578125 55.046875 
Q 24.21875 56 28.609375 56 
Q 40.484375 56 46.34375 49.84375 
Q 52.203125 43.703125 52.203125 31.203125 
z
" id="DejaVuSans-97"/>
     </defs>
     <g transform="translate(696.865156 622.938963)scale(0.1 -0.1)">
      <use xlink:href="#DejaVuSans-65"/>
      <use x="68.408203" xlink:href="#DejaVuSans-114"/>
      <use x="109.490234" xlink:href="#DejaVuSans-101"/>
      <use x="171.013672" xlink:href="#DejaVuSans-97"/>
     </g>
    </g>
   </g>
   <g id="matplotlib.axis_2">
    <g id="ytick_1">
     <g id="line2d_8">
      <defs>
       <path d="M 0 0 
L -3.5 0 
" id="m4c88723d34" style="stroke:#000000;stroke-width:0.8;"/>
      </defs>
      <g>
       <use style="stroke:#000000;stroke-width:0.8;" x="172.8" xlink:href="#m4c88723d34" y="594.6624"/>
      </g>
     </g>
     <g id="text_9">
      <!-- 0.0 -->
      <g transform="translate(149.896875 598.461619)scale(0.1 -0.1)">
       <use xlink:href="#DejaVuSans-48"/>
       <use x="63.623047" xlink:href="#DejaVuSans-46"/>
       <use x="95.410156" xlink:href="#DejaVuSans-48"/>
      </g>
     </g>
    </g>
    <g id="ytick_2">
     <g id="line2d_9">
      <g>
       <use style="stroke:#000000;stroke-width:0.8;" x="172.8" xlink:href="#m4c88723d34" y="534.062015"/>
      </g>
     </g>
     <g id="text_10">
      <!-- 2.5 -->
      <g transform="translate(149.896875 537.861234)scale(0.1 -0.1)">
       <use xlink:href="#DejaVuSans-50"/>
       <use x="63.623047" xlink:href="#DejaVuSans-46"/>
       <use x="95.410156" xlink:href="#DejaVuSans-53"/>
      </g>
     </g>
    </g>
    <g id="ytick_3">
     <g id="line2d_10">
      <g>
       <use style="stroke:#000000;stroke-width:0.8;" x="172.8" xlink:href="#m4c88723d34" y="473.46163"/>
      </g>
     </g>
     <g id="text_11">
      <!-- 5.0 -->
      <g transform="translate(149.896875 477.260848)scale(0.1 -0.1)">
       <use xlink:href="#DejaVuSans-53"/>
       <use x="63.623047" xlink:href="#DejaVuSans-46"/>
       <use x="95.410156" xlink:href="#DejaVuSans-48"/>
      </g>
     </g>
    </g>
    <g id="ytick_4">
     <g id="line2d_11">
      <g>
       <use style="stroke:#000000;stroke-width:0.8;" x="172.8" xlink:href="#m4c88723d34" y="412.861244"/>
      </g>
     </g>
     <g id="text_12">
      <!-- 7.5 -->
      <defs>
       <path d="M 8.203125 72.90625 
L 55.078125 72.90625 
L 55.078125 68.703125 
L 28.609375 0 
L 18.3125 0 
L 43.21875 64.59375 
L 8.203125 64.59375 
z
" id="DejaVuSans-55"/>
      </defs>
      <g transform="translate(149.896875 416.660463)scale(0.1 -0.1)">
       <use xlink:href="#DejaVuSans-55"/>
       <use x="63.623047" xlink:href="#DejaVuSans-46"/>
       <use x="95.410156" xlink:href="#DejaVuSans-53"/>
      </g>
     </g>
    </g>
    <g id="ytick_5">
     <g id="line2d_12">
      <g>
       <use style="stroke:#000000;stroke-width:0.8;" x="172.8" xlink:href="#m4c88723d34" y="352.260859"/>
      </g>
     </g>
     <g id="text_13">
      <!-- 10.0 -->
      <g transform="translate(143.534375 356.060078)scale(0.1 -0.1)">
       <use xlink:href="#DejaVuSans-49"/>
       <use x="63.623047" xlink:href="#DejaVuSans-48"/>
       <use x="127.246094" xlink:href="#DejaVuSans-46"/>
       <use x="159.033203" xlink:href="#DejaVuSans-48"/>
      </g>
     </g>
    </g>
    <g id="ytick_6">
     <g id="line2d_13">
      <g>
       <use style="stroke:#000000;stroke-width:0.8;" x="172.8" xlink:href="#m4c88723d34" y="291.660474"/>
      </g>
     </g>
     <g id="text_14">
      <!-- 12.5 -->
      <g transform="translate(143.534375 295.459693)scale(0.1 -0.1)">
       <use xlink:href="#DejaVuSans-49"/>
       <use x="63.623047" xlink:href="#DejaVuSans-50"/>
       <use x="127.246094" xlink:href="#DejaVuSans-46"/>
       <use x="159.033203" xlink:href="#DejaVuSans-53"/>
      </g>
     </g>
    </g>
    <g id="ytick_7">
     <g id="line2d_14">
      <g>
       <use style="stroke:#000000;stroke-width:0.8;" x="172.8" xlink:href="#m4c88723d34" y="231.060089"/>
      </g>
     </g>
     <g id="text_15">
      <!-- 15.0 -->
      <g transform="translate(143.534375 234.859308)scale(0.1 -0.1)">
       <use xlink:href="#DejaVuSans-49"/>
       <use x="63.623047" xlink:href="#DejaVuSans-53"/>
       <use x="127.246094" xlink:href="#DejaVuSans-46"/>
       <use x="159.033203" xlink:href="#DejaVuSans-48"/>
      </g>
     </g>
    </g>
    <g id="ytick_8">
     <g id="line2d_15">
      <g>
       <use style="stroke:#000000;stroke-width:0.8;" x="172.8" xlink:href="#m4c88723d34" y="170.459704"/>
      </g>
     </g>
     <g id="text_16">
      <!-- 17.5 -->
      <g transform="translate(143.534375 174.258922)scale(0.1 -0.1)">
       <use xlink:href="#DejaVuSans-49"/>
       <use x="63.623047" xlink:href="#DejaVuSans-55"/>
       <use x="127.246094" xlink:href="#DejaVuSans-46"/>
       <use x="159.033203" xlink:href="#DejaVuSans-53"/>
      </g>
     </g>
    </g>
    <g id="ytick_9">
     <g id="line2d_16">
      <g>
       <use style="stroke:#000000;stroke-width:0.8;" x="172.8" xlink:href="#m4c88723d34" y="109.859319"/>
      </g>
     </g>
     <g id="text_17">
      <!-- 20.0 -->
      <g transform="translate(143.534375 113.658537)scale(0.1 -0.1)">
       <use xlink:href="#DejaVuSans-50"/>
       <use x="63.623047" xlink:href="#DejaVuSans-48"/>
       <use x="127.246094" xlink:href="#DejaVuSans-46"/>
       <use x="159.033203" xlink:href="#DejaVuSans-48"/>
      </g>
     </g>
    </g>
    <g id="text_18">
     <!-- Events -->
     <defs>
      <path d="M 9.8125 72.90625 
L 55.90625 72.90625 
L 55.90625 64.59375 
L 19.671875 64.59375 
L 19.671875 43.015625 
L 54.390625 43.015625 
L 54.390625 34.71875 
L 19.671875 34.71875 
L 19.671875 8.296875 
L 56.78125 8.296875 
L 56.78125 0 
L 9.8125 0 
z
" id="DejaVuSans-69"/>
      <path d="M 2.984375 54.6875 
L 12.5 54.6875 
L 29.59375 8.796875 
L 46.6875 54.6875 
L 56.203125 54.6875 
L 35.6875 0 
L 23.484375 0 
z
" id="DejaVuSans-118"/>
      <path d="M 54.890625 33.015625 
L 54.890625 0 
L 45.90625 0 
L 45.90625 32.71875 
Q 45.90625 40.484375 42.875 44.328125 
Q 39.84375 48.1875 33.796875 48.1875 
Q 26.515625 48.1875 22.3125 43.546875 
Q 18.109375 38.921875 18.109375 30.90625 
L 18.109375 0 
L 9.078125 0 
L 9.078125 54.6875 
L 18.109375 54.6875 
L 18.109375 46.1875 
Q 21.34375 51.125 25.703125 53.5625 
Q 30.078125 56 35.796875 56 
Q 45.21875 56 50.046875 50.171875 
Q 54.890625 44.34375 54.890625 33.015625 
z
" id="DejaVuSans-110"/>
      <path d="M 18.3125 70.21875 
L 18.3125 54.6875 
L 36.8125 54.6875 
L 36.8125 47.703125 
L 18.3125 47.703125 
L 18.3125 18.015625 
Q 18.3125 11.328125 20.140625 9.421875 
Q 21.96875 7.515625 27.59375 7.515625 
L 36.8125 7.515625 
L 36.8125 0 
L 27.59375 0 
Q 17.1875 0 13.234375 3.875 
Q 9.28125 7.765625 9.28125 18.015625 
L 9.28125 47.703125 
L 2.6875 47.703125 
L 2.6875 54.6875 
L 9.28125 54.6875 
L 9.28125 70.21875 
z
" id="DejaVuSans-116"/>
      <path d="M 44.28125 53.078125 
L 44.28125 44.578125 
Q 40.484375 46.53125 36.375 47.5 
Q 32.28125 48.484375 27.875 48.484375 
Q 21.1875 48.484375 17.84375 46.4375 
Q 14.5 44.390625 14.5 40.28125 
Q 14.5 37.15625 16.890625 35.375 
Q 19.28125 33.59375 26.515625 31.984375 
L 29.59375 31.296875 
Q 39.15625 29.25 43.1875 25.515625 
Q 47.21875 21.78125 47.21875 15.09375 
Q 47.21875 7.46875 41.1875 3.015625 
Q 35.15625 -1.421875 24.609375 -1.421875 
Q 20.21875 -1.421875 15.453125 -0.5625 
Q 10.6875 0.296875 5.421875 2 
L 5.421875 11.28125 
Q 10.40625 8.6875 15.234375 7.390625 
Q 20.0625 6.109375 24.8125 6.109375 
Q 31.15625 6.109375 34.5625 8.28125 
Q 37.984375 10.453125 37.984375 14.40625 
Q 37.984375 18.0625 35.515625 20.015625 
Q 33.0625 21.96875 24.703125 23.78125 
L 21.578125 24.515625 
Q 13.234375 26.265625 9.515625 29.90625 
Q 5.8125 33.546875 5.8125 39.890625 
Q 5.8125 47.609375 11.28125 51.796875 
Q 16.75 56 26.8125 56 
Q 31.78125 56 36.171875 55.265625 
Q 40.578125 54.546875 44.28125 53.078125 
z
" id="DejaVuSans-115"/>
     </defs>
     <g transform="translate(137.454687 354.349706)rotate(-90)scale(0.1 -0.1)">
      <use xlink:href="#DejaVuSans-69"/>
      <use x="63.183594" xlink:href="#DejaVuSans-118"/>
      <use x="122.363281" xlink:href="#DejaVuSans-101"/>
      <use x="183.886719" xlink:href="#DejaVuSans-110"/>
      <use x="247.265625" xlink:href="#DejaVuSans-116"/>
      <use x="286.474609" xlink:href="#DejaVuSans-115"/>
     </g>
    </g>
   </g>
   <g id="patch_253">
    <path d="M 172.8 594.6624 
L 172.8 80.1792 
" style="fill:none;stroke:#000000;stroke-linecap:square;stroke-linejoin:miter;stroke-width:0.8;"/>
   </g>
   <g id="patch_254">
    <path d="M 1244.16 594.6624 
L 1244.16 80.1792 
" style="fill:none;stroke:#000000;stroke-linecap:square;stroke-linejoin:miter;stroke-width:0.8;"/>
   </g>
   <g id="patch_255">
    <path d="M 172.8 594.6624 
L 1244.16 594.6624 
" style="fill:none;stroke:#000000;stroke-linecap:square;stroke-linejoin:miter;stroke-width:0.8;"/>
   </g>
   <g id="patch_256">
    <path d="M 172.8 80.1792 
L 1244.16 80.1792 
" style="fill:none;stroke:#000000;stroke-linecap:square;stroke-linejoin:miter;stroke-width:0.8;"/>
   </g>
   <g id="text_19">
    <!-- Pulse area distribution -->
    <defs>
     <path d="M 19.671875 64.796875 
L 19.671875 37.40625 
L 32.078125 37.40625 
Q 38.96875 37.40625 42.71875 40.96875 
Q 46.484375 44.53125 46.484375 51.125 
Q 46.484375 57.671875 42.71875 61.234375 
Q 38.96875 64.796875 32.078125 64.796875 
z
M 9.8125 72.90625 
L 32.078125 72.90625 
Q 44.34375 72.90625 50.609375 67.359375 
Q 56.890625 61.8125 56.890625 51.125 
Q 56.890625 40.328125 50.609375 34.8125 
Q 44.34375 29.296875 32.078125 29.296875 
L 19.671875 29.296875 
L 19.671875 0 
L 9.8125 0 
z
" id="DejaVuSans-80"/>
     <path d="M 8.5 21.578125 
L 8.5 54.6875 
L 17.484375 54.6875 
L 17.484375 21.921875 
Q 17.484375 14.15625 20.5 10.265625 
Q 23.53125 6.390625 29.59375 6.390625 
Q 36.859375 6.390625 41.078125 11.03125 
Q 45.3125 15.671875 45.3125 23.6875 
L 45.3125 54.6875 
L 54.296875 54.6875 
L 54.296875 0 
L 45.3125 0 
L 45.3125 8.40625 
Q 42.046875 3.421875 37.71875 1 
Q 33.40625 -1.421875 27.6875 -1.421875 
Q 18.265625 -1.421875 13.375 4.4375 
Q 8.5 10.296875 8.5 21.578125 
z
M 31.109375 56 
z
" id="DejaVuSans-117"/>
     <path d="M 9.421875 75.984375 
L 18.40625 75.984375 
L 18.40625 0 
L 9.421875 0 
z
" id="DejaVuSans-108"/>
     <path id="DejaVuSans-32"/>
     <path d="M 45.40625 46.390625 
L 45.40625 75.984375 
L 54.390625 75.984375 
L 54.390625 0 
L 45.40625 0 
L 45.40625 8.203125 
Q 42.578125 3.328125 38.25 0.953125 
Q 33.9375 -1.421875 27.875 -1.421875 
Q 17.96875 -1.421875 11.734375 6.484375 
Q 5.515625 14.40625 5.515625 27.296875 
Q 5.515625 40.1875 11.734375 48.09375 
Q 17.96875 56 27.875 56 
Q 33.9375 56 38.25 53.625 
Q 42.578125 51.265625 45.40625 46.390625 
z
M 14.796875 27.296875 
Q 14.796875 17.390625 18.875 11.75 
Q 22.953125 6.109375 30.078125 6.109375 
Q 37.203125 6.109375 41.296875 11.75 
Q 45.40625 17.390625 45.40625 27.296875 
Q 45.40625 37.203125 41.296875 42.84375 
Q 37.203125 48.484375 30.078125 48.484375 
Q 22.953125 48.484375 18.875 42.84375 
Q 14.796875 37.203125 14.796875 27.296875 
z
" id="DejaVuSans-100"/>
     <path d="M 9.421875 54.6875 
L 18.40625 54.6875 
L 18.40625 0 
L 9.421875 0 
z
M 9.421875 75.984375 
L 18.40625 75.984375 
L 18.40625 64.59375 
L 9.421875 64.59375 
z
" id="DejaVuSans-105"/>
     <path d="M 48.6875 27.296875 
Q 48.6875 37.203125 44.609375 42.84375 
Q 40.53125 48.484375 33.40625 48.484375 
Q 26.265625 48.484375 22.1875 42.84375 
Q 18.109375 37.203125 18.109375 27.296875 
Q 18.109375 17.390625 22.1875 11.75 
Q 26.265625 6.109375 33.40625 6.109375 
Q 40.53125 6.109375 44.609375 11.75 
Q 48.6875 17.390625 48.6875 27.296875 
z
M 18.109375 46.390625 
Q 20.953125 51.265625 25.265625 53.625 
Q 29.59375 56 35.59375 56 
Q 45.5625 56 51.78125 48.09375 
Q 58.015625 40.1875 58.015625 27.296875 
Q 58.015625 14.40625 51.78125 6.484375 
Q 45.5625 -1.421875 35.59375 -1.421875 
Q 29.59375 -1.421875 25.265625 0.953125 
Q 20.953125 3.328125 18.109375 8.203125 
L 18.109375 0 
L 9.078125 0 
L 9.078125 75.984375 
L 18.109375 75.984375 
z
" id="DejaVuSans-98"/>
     <path d="M 30.609375 48.390625 
Q 23.390625 48.390625 19.1875 42.75 
Q 14.984375 37.109375 14.984375 27.296875 
Q 14.984375 17.484375 19.15625 11.84375 
Q 23.34375 6.203125 30.609375 6.203125 
Q 37.796875 6.203125 41.984375 11.859375 
Q 46.1875 17.53125 46.1875 27.296875 
Q 46.1875 37.015625 41.984375 42.703125 
Q 37.796875 48.390625 30.609375 48.390625 
z
M 30.609375 56 
Q 42.328125 56 49.015625 48.375 
Q 55.71875 40.765625 55.71875 27.296875 
Q 55.71875 13.875 49.015625 6.21875 
Q 42.328125 -1.421875 30.609375 -1.421875 
Q 18.84375 -1.421875 12.171875 6.21875 
Q 5.515625 13.875 5.515625 27.296875 
Q 5.515625 40.765625 12.171875 48.375 
Q 18.84375 56 30.609375 56 
z
" id="DejaVuSans-111"/>
    </defs>
    <g transform="translate(641.060625 74.1792)scale(0.12 -0.12)">
     <use xlink:href="#DejaVuSans-80"/>
     <use x="60.287109" xlink:href="#DejaVuSans-117"/>
     <use x="123.666016" xlink:href="#DejaVuSans-108"/>
     <use x="151.449219" xlink:href="#DejaVuSans-115"/>
     <use x="203.548828" xlink:href="#DejaVuSans-101"/>
     <use x="265.072266" xlink:href="#DejaVuSans-32"/>
     <use x="296.859375" xlink:href="#DejaVuSans-97"/>
     <use x="358.138672" xlink:href="#DejaVuSans-114"/>
     <use x="399.220703" xlink:href="#DejaVuSans-101"/>
     <use x="460.744141" xlink:href="#DejaVuSans-97"/>
     <use x="522.023438" xlink:href="#DejaVuSans-32"/>
     <use x="553.810547" xlink:href="#DejaVuSans-100"/>
     <use x="617.287109" xlink:href="#DejaVuSans-105"/>
     <use x="645.070312" xlink:href="#DejaVuSans-115"/>
     <use x="697.169922" xlink:href="#DejaVuSans-116"/>
     <use x="736.378906" xlink:href="#DejaVuSans-114"/>
     <use x="777.492188" xlink:href="#DejaVuSans-105"/>
     <use x="805.275391" xlink:href="#DejaVuSans-98"/>
     <use x="868.751953" xlink:href="#DejaVuSans-117"/>
     <use x="932.130859" xlink:href="#DejaVuSans-116"/>
     <use x="971.339844" xlink:href="#DejaVuSans-105"/>
     <use x="999.123047" xlink:href="#DejaVuSans-111"/>
     <use x="1060.304688" xlink:href="#DejaVuSans-110"/>
    </g>
   </g>
   <g id="legend_1">
    <g id="patch_257">
     <path d="M 1081.094375 102.857325 
L 1237.16 102.857325 
Q 1239.16 102.857325 1239.16 100.857325 
L 1239.16 87.1792 
Q 1239.16 85.1792 1237.16 85.1792 
L 1081.094375 85.1792 
Q 1079.094375 85.1792 1079.094375 87.1792 
L 1079.094375 100.857325 
Q 1079.094375 102.857325 1081.094375 102.857325 
z
" style="fill:#ffffff;opacity:0.8;stroke:#cccccc;stroke-linejoin:miter;"/>
    </g>
    <g id="patch_258">
     <path d="M 1083.094375 96.777638 
L 1103.094375 96.777638 
L 1103.094375 89.777638 
L 1083.094375 89.777638 
z
" style="fill:#4682b4;stroke:#000000;stroke-linejoin:miter;"/>
    </g>
    <g id="text_20">
     <!-- 0.011018343670024997 -->
     <defs>
      <path d="M 31.78125 34.625 
Q 24.75 34.625 20.71875 30.859375 
Q 16.703125 27.09375 16.703125 20.515625 
Q 16.703125 13.921875 20.71875 10.15625 
Q 24.75 6.390625 31.78125 6.390625 
Q 38.8125 6.390625 42.859375 10.171875 
Q 46.921875 13.96875 46.921875 20.515625 
Q 46.921875 27.09375 42.890625 30.859375 
Q 38.875 34.625 31.78125 34.625 
z
M 21.921875 38.8125 
Q 15.578125 40.375 12.03125 44.71875 
Q 8.5 49.078125 8.5 55.328125 
Q 8.5 64.0625 14.71875 69.140625 
Q 20.953125 74.21875 31.78125 74.21875 
Q 42.671875 74.21875 48.875 69.140625 
Q 55.078125 64.0625 55.078125 55.328125 
Q 55.078125 49.078125 51.53125 44.71875 
Q 48 40.375 41.703125 38.8125 
Q 48.828125 37.15625 52.796875 32.3125 
Q 56.78125 27.484375 56.78125 20.515625 
Q 56.78125 9.90625 50.3125 4.234375 
Q 43.84375 -1.421875 31.78125 -1.421875 
Q 19.734375 -1.421875 13.25 4.234375 
Q 6.78125 9.90625 6.78125 20.515625 
Q 6.78125 27.484375 10.78125 32.3125 
Q 14.796875 37.15625 21.921875 38.8125 
z
M 18.3125 54.390625 
Q 18.3125 48.734375 21.84375 45.5625 
Q 25.390625 42.390625 31.78125 42.390625 
Q 38.140625 42.390625 41.71875 45.5625 
Q 45.3125 48.734375 45.3125 54.390625 
Q 45.3125 60.0625 41.71875 63.234375 
Q 38.140625 66.40625 31.78125 66.40625 
Q 25.390625 66.40625 21.84375 63.234375 
Q 18.3125 60.0625 18.3125 54.390625 
z
" id="DejaVuSans-56"/>
      <path d="M 10.984375 1.515625 
L 10.984375 10.5 
Q 14.703125 8.734375 18.5 7.8125 
Q 22.3125 6.890625 25.984375 6.890625 
Q 35.75 6.890625 40.890625 13.453125 
Q 46.046875 20.015625 46.78125 33.40625 
Q 43.953125 29.203125 39.59375 26.953125 
Q 35.25 24.703125 29.984375 24.703125 
Q 19.046875 24.703125 12.671875 31.3125 
Q 6.296875 37.9375 6.296875 49.421875 
Q 6.296875 60.640625 12.9375 67.421875 
Q 19.578125 74.21875 30.609375 74.21875 
Q 43.265625 74.21875 49.921875 64.515625 
Q 56.59375 54.828125 56.59375 36.375 
Q 56.59375 19.140625 48.40625 8.859375 
Q 40.234375 -1.421875 26.421875 -1.421875 
Q 22.703125 -1.421875 18.890625 -0.6875 
Q 15.09375 0.046875 10.984375 1.515625 
z
M 30.609375 32.421875 
Q 37.25 32.421875 41.125 36.953125 
Q 45.015625 41.5 45.015625 49.421875 
Q 45.015625 57.28125 41.125 61.84375 
Q 37.25 66.40625 30.609375 66.40625 
Q 23.96875 66.40625 20.09375 61.84375 
Q 16.21875 57.28125 16.21875 49.421875 
Q 16.21875 41.5 20.09375 36.953125 
Q 23.96875 32.421875 30.609375 32.421875 
z
" id="DejaVuSans-57"/>
     </defs>
     <g transform="translate(1111.094375 96.777638)scale(0.1 -0.1)">
      <use xlink:href="#DejaVuSans-48"/>
      <use x="63.623047" xlink:href="#DejaVuSans-46"/>
      <use x="95.410156" xlink:href="#DejaVuSans-48"/>
      <use x="159.033203" xlink:href="#DejaVuSans-49"/>
      <use x="222.65625" xlink:href="#DejaVuSans-49"/>
      <use x="286.279297" xlink:href="#DejaVuSans-48"/>
      <use x="349.902344" xlink:href="#DejaVuSans-49"/>
      <use x="413.525391" xlink:href="#DejaVuSans-56"/>
      <use x="477.148438" xlink:href="#DejaVuSans-51"/>
      <use x="540.771484" xlink:href="#DejaVuSans-52"/>
      <use x="604.394531" xlink:href="#DejaVuSans-51"/>
      <use x="668.017578" xlink:href="#DejaVuSans-54"/>
      <use x="731.640625" xlink:href="#DejaVuSans-55"/>
      <use x="795.263672" xlink:href="#DejaVuSans-48"/>
      <use x="858.886719" xlink:href="#DejaVuSans-48"/>
      <use x="922.509766" xlink:href="#DejaVuSans-50"/>
      <use x="986.132812" xlink:href="#DejaVuSans-52"/>
      <use x="1049.755859" xlink:href="#DejaVuSans-57"/>
      <use x="1113.378906" xlink:href="#DejaVuSans-57"/>
      <use x="1177.001953" xlink:href="#DejaVuSans-55"/>
     </g>
    </g>
   </g>
  </g>
 </g>
 <defs>
  <clipPath id="pd18ee3eb46">
   <rect height="514.4832" width="1071.36" x="172.8" y="80.1792"/>
  </clipPath>
 </defs>
</svg>
